<svg width="12" height="12" viewBox="0 0 12 12" fill="none" xmlns="http://www.w3.org/2000/svg">
<path d="M0.243989 0.254407C0.400262 0.0981811 0.612185 0.0104182 0.833155 0.0104182C1.05413 0.0104182 1.26605 0.0981811 1.42232 0.254407L5.83316 4.66524L10.244 0.254407C10.3209 0.174815 10.4128 0.11133 10.5145 0.0676557C10.6162 0.0239816 10.7255 0.000992978 10.8362 3.14642e-05C10.9468 -0.000930049 11.0565 0.0201545 11.1589 0.0620553C11.2614 0.103956 11.3544 0.165834 11.4327 0.244078C11.5109 0.322321 11.5728 0.415365 11.6147 0.517778C11.6566 0.620192 11.6777 0.729925 11.6767 0.840575C11.6757 0.951224 11.6527 1.06057 11.6091 1.16224C11.5654 1.26391 11.5019 1.35587 11.4223 1.43274L7.01149 5.84357L11.4223 10.2544C11.5741 10.4116 11.6581 10.6221 11.6562 10.8406C11.6543 11.0591 11.5667 11.2681 11.4122 11.4226C11.2577 11.5771 11.0487 11.6647 10.8302 11.6666C10.6117 11.6685 10.4012 11.5845 10.244 11.4327L5.83316 7.02191L1.42232 11.4327C1.26515 11.5845 1.05465 11.6685 0.836154 11.6666C0.617657 11.6647 0.408647 11.5771 0.25414 11.4226C0.0996331 11.2681 0.0119921 11.0591 0.0100935 10.8406C0.00819477 10.6221 0.0921904 10.4116 0.243989 10.2544L4.65482 5.84357L0.243989 1.43274C0.087763 1.27647 0 1.06454 0 0.843574C0 0.622603 0.087763 0.41068 0.243989 0.254407Z" fill="white"/>
</svg>
