<svg width="60" height="60" viewBox="0 0 60 60" fill="none" xmlns="http://www.w3.org/2000/svg">
<path fill-rule="evenodd" clip-rule="evenodd" d="M30.002 60C46.5705 60 60.002 46.5685 60.002 30C60.002 13.4315 46.5705 0 30.002 0C13.4334 0 0.00195312 13.4315 0.00195312 30C0.00195312 46.5685 13.4334 60 30.002 60ZM43.778 22.3815C44.5409 21.4006 44.3642 19.987 43.3833 19.2241C42.4025 18.4612 40.9888 18.6379 40.2259 19.6187L28.2049 35.0743C27.9376 35.418 27.4348 35.4626 27.1112 35.1713L19.5071 28.3277C18.5835 27.4964 17.1608 27.5713 16.3296 28.4949C15.4983 29.4186 15.5732 30.8412 16.4968 31.6725L24.1008 38.5162C26.3662 40.555 29.8859 40.2428 31.757 37.837L43.778 22.3815Z" fill="#129958"/>
</svg>
