<svg width="60" height="60" viewBox="0 0 60 60" fill="none" xmlns="http://www.w3.org/2000/svg">
<path fill-rule="evenodd" clip-rule="evenodd" d="M60.0021 30C60.0021 46.5685 46.5706 60 30.0021 60C13.4335 60 0.0020752 46.5685 0.0020752 30C0.0020752 13.4315 13.4335 0 30.0021 0C46.5706 0 60.0021 13.4315 60.0021 30ZM40.0784 40.0761C39.1997 40.9548 37.7751 40.9548 36.8964 40.0761L30.0021 33.1818L23.1078 40.0761C22.2291 40.9548 20.8045 40.9548 19.9258 40.0761C19.0471 39.1974 19.0471 37.7728 19.9258 36.8941L26.8201 29.9998L19.9258 23.1055C19.0472 22.2269 19.0472 20.8022 19.9258 19.9236C20.8045 19.0449 22.2291 19.0449 23.1078 19.9236L30.0021 26.8178L36.8964 19.9236C37.775 19.0449 39.1997 19.0449 40.0783 19.9236C40.957 20.8023 40.957 22.2269 40.0783 23.1056L33.1841 29.9998L40.0784 36.8941C40.9571 37.7728 40.9571 39.1974 40.0784 40.0761Z" fill="#E02D3C"/>
</svg>
