<svg width="273" height="192" viewBox="0 0 273 192" fill="none" xmlns="http://www.w3.org/2000/svg">
<path d="M101.59 0.118652H11.4345C5.41576 0.118652 0.536621 5.01713 0.536621 11.0597V149.74C0.536621 155.783 5.41576 160.681 11.4345 160.681H101.59C107.608 160.681 112.488 155.783 112.488 149.74V11.0597C112.488 5.01713 107.608 0.118652 101.59 0.118652Z" fill="url(#paint0_linear_1162_9080)"/>
<path d="M80.9247 101.214L29.0209 160.682H11.4345C5.41614 160.682 0.536621 155.783 0.536621 149.741V107.555L30.3205 61.895L80.9247 101.214Z" fill="url(#paint1_linear_1162_9080)"/>
<path d="M24.4855 80.3985C24.4855 91.8866 30.591 102.502 40.4999 108.246C50.4088 113.99 62.6198 113.99 72.5287 108.246C82.4376 102.502 88.5431 91.8866 88.5431 80.3985C88.5431 68.9103 82.4376 58.2948 72.5287 52.5507C62.6198 46.8067 50.4088 46.8067 40.4999 52.5507C30.591 58.2948 24.4855 68.9103 24.4855 80.3985Z" fill="url(#paint2_linear_1162_9080)"/>
<path d="M70.1953 85.7842C73.158 85.7842 75.5598 83.3729 75.5598 80.3984C75.5598 77.424 73.158 75.0127 70.1953 75.0127C67.2326 75.0127 64.8308 77.424 64.8308 80.3984C64.8308 83.3729 67.2326 85.7842 70.1953 85.7842Z" fill="url(#paint3_linear_1162_9080)"/>
<path d="M42.8331 85.7842C45.7958 85.7842 48.1976 83.3729 48.1976 80.3984C48.1976 77.424 45.7958 75.0127 42.8331 75.0127C39.8704 75.0127 37.4686 77.424 37.4686 80.3984C37.4686 83.3729 39.8704 85.7842 42.8331 85.7842Z" fill="url(#paint4_linear_1162_9080)"/>
<path d="M124.168 177.97H89.5423C86.5917 177.97 84.1779 175.546 84.1779 172.584C84.1779 169.622 86.5917 167.198 89.5423 167.198H124.168C127.118 167.198 129.532 169.622 129.532 172.584C129.532 175.546 127.118 177.97 124.168 177.97Z" fill="url(#paint5_linear_1162_9080)"/>
<path d="M124.168 149.251H89.5423C86.5917 149.251 84.1779 146.828 84.1779 143.866C84.1779 140.903 86.5917 138.48 89.5423 138.48H124.168C127.118 138.48 129.532 140.903 129.532 143.866C129.532 146.828 127.118 149.251 124.168 149.251Z" fill="url(#paint6_linear_1162_9080)"/>
<path d="M180.881 124.639V192H121.531V191.913C121.139 191.97 120.744 192 120.346 192C111.238 192 103.855 176.921 103.855 158.318C103.855 139.715 111.238 124.639 120.346 124.639C120.744 124.639 121.139 124.669 121.531 124.726H121.539L180.881 124.639Z" fill="url(#paint7_linear_1162_9080)"/>
<path d="M180.883 191.997C189.992 191.997 197.377 176.919 197.377 158.318C197.377 139.717 189.992 124.639 180.883 124.639C171.774 124.639 164.389 139.717 164.389 158.318C164.389 176.919 171.774 191.997 180.883 191.997Z" fill="url(#paint8_linear_1162_9080)"/>
<path d="M190.917 169.765L178.581 191.672C173.789 190.304 169.656 184.73 167.108 176.836L182.572 150.654L190.917 169.765Z" fill="url(#paint9_linear_1162_9080)"/>
<path d="M188.348 147.478C202.409 148.463 254.715 147.943 260.925 95.4045C261.284 92.3683 263.87 90.0898 266.916 90.0898C270.16 90.0898 272.828 92.6637 272.95 95.9187C273.604 113.578 268.643 165.534 188.331 169.76C186.002 169.883 183.811 168.652 182.681 166.603L179.885 161.527C178.875 159.691 178.869 157.465 179.869 155.624L182.572 150.657C183.713 148.556 185.969 147.312 188.348 147.478Z" fill="url(#paint10_linear_1162_9080)"/>
<path d="M121.533 192.001V191.914C121.14 191.971 120.745 192.001 120.348 192.001C114.83 192.001 109.946 186.468 106.954 177.969H167.489C170.48 186.468 175.365 192.001 180.882 192.001H121.533Z" fill="url(#paint11_linear_1162_9080)"/>
<path d="M259.069 141.828C246.567 155.892 225.092 167.821 188.348 169.758C186.013 169.881 183.811 168.655 182.681 166.601L179.885 161.524C179.452 160.742 179.204 159.886 179.142 159.022C192.317 160.233 226.596 160.493 251.825 134.987L259.069 141.828Z" fill="url(#paint12_linear_1162_9080)"/>
<defs>
<linearGradient id="paint0_linear_1162_9080" x1="56.5135" y1="160.681" x2="56.5135" y2="0.118652" gradientUnits="userSpaceOnUse">
<stop stop-color="#A0A7B1"/>
<stop offset="1" stop-color="#E1E3E6"/>
</linearGradient>
<linearGradient id="paint1_linear_1162_9080" x1="44.6294" y1="96.6466" x2="-11.6528" y2="173.293" gradientUnits="userSpaceOnUse">
<stop stop-color="#A0A7B1"/>
<stop offset="1" stop-color="#AFB5C1"/>
</linearGradient>
<linearGradient id="paint2_linear_1162_9080" x1="56.5116" y1="112.554" x2="56.5116" y2="48.2427" gradientUnits="userSpaceOnUse">
<stop stop-color="#E0E2E6"/>
<stop offset="0.5" stop-color="white"/>
<stop offset="1" stop-color="#F9F9F9"/>
</linearGradient>
<linearGradient id="paint3_linear_1162_9080" x1="64.8308" y1="80.3984" x2="75.5598" y2="80.3984" gradientUnits="userSpaceOnUse">
<stop stop-color="#AEB4BF"/>
<stop offset="1" stop-color="#A0A7B1"/>
</linearGradient>
<linearGradient id="paint4_linear_1162_9080" x1="37.4686" y1="-19.157" x2="48.1976" y2="-19.157" gradientUnits="userSpaceOnUse">
<stop stop-color="#A0A7B1"/>
<stop offset="1" stop-color="#AFB4BF"/>
</linearGradient>
<linearGradient id="paint5_linear_1162_9080" x1="84.1751" y1="172.584" x2="129.529" y2="172.584" gradientUnits="userSpaceOnUse">
<stop stop-color="#A0A7B1"/>
<stop offset="1" stop-color="#A3AAB6"/>
</linearGradient>
<linearGradient id="paint6_linear_1162_9080" x1="-50.8357" y1="143.866" x2="-50.5633" y2="143.866" gradientUnits="userSpaceOnUse">
<stop stop-color="#A0A7B1"/>
<stop offset="1" stop-color="#A3AAB6"/>
</linearGradient>
<linearGradient id="paint7_linear_1162_9080" x1="142.368" y1="192" x2="142.368" y2="124.639" gradientUnits="userSpaceOnUse">
<stop stop-color="#A0A7B1"/>
<stop offset="1" stop-color="#E1E3E6"/>
</linearGradient>
<linearGradient id="paint8_linear_1162_9080" x1="164.389" y1="158.318" x2="197.374" y2="158.318" gradientUnits="userSpaceOnUse">
<stop stop-color="#A3AAB6"/>
<stop offset="1" stop-color="#A0A7B1"/>
</linearGradient>
<linearGradient id="paint9_linear_1162_9080" x1="166.838" y1="176.182" x2="190.176" y2="167.721" gradientUnits="userSpaceOnUse">
<stop stop-color="#A3AAB6"/>
<stop offset="1" stop-color="#A0A7B1"/>
</linearGradient>
<linearGradient id="paint10_linear_1162_9080" x1="226.06" y1="169.768" x2="226.06" y2="90.0871" gradientUnits="userSpaceOnUse">
<stop stop-color="#A0A7B1"/>
<stop offset="1" stop-color="#E1E3E6"/>
</linearGradient>
<linearGradient id="paint11_linear_1162_9080" x1="106.954" y1="184.985" x2="180.882" y2="184.985" gradientUnits="userSpaceOnUse">
<stop stop-color="#ABB1BC"/>
<stop offset="1" stop-color="#A0A7B1"/>
</linearGradient>
<linearGradient id="paint12_linear_1162_9080" x1="182.302" y1="168.412" x2="258.668" y2="140.728" gradientUnits="userSpaceOnUse">
<stop stop-color="#E1E3E6"/>
<stop offset="1" stop-color="#A0A7B1"/>
</linearGradient>
</defs>
</svg>
