<svg width="60" height="60" viewBox="0 0 60 60" fill="none" xmlns="http://www.w3.org/2000/svg">
<path d="M47.4998 34.9995C40.596 34.9995 35.0003 40.5953 35.0003 47.5005C35.0003 54.4043 40.596 60 47.4998 60C54.4043 60 60 54.4043 60 47.5005C60 40.5953 54.4043 34.9995 47.4998 34.9995ZM54.1313 51.4778L51.48 54.129L47.4998 50.1518L43.5255 54.129L40.869 51.4778L44.8485 47.5005L40.869 43.5233L43.5255 40.872L47.4998 44.8493L51.48 40.872L54.1313 43.5233L50.151 47.5005L54.1313 51.4778ZM2.92969 0C1.31167 0 0 1.31167 0 2.92969V14.5701C0 16.1881 1.31167 17.4998 2.92969 17.4998H14.5701C16.1881 17.4998 17.4998 16.1881 17.4998 14.5701V2.92969C17.4998 1.31167 16.1881 0 14.5701 0H2.92969ZM12.5003 12.5003H5.00025V5.00025H12.5003V12.5003ZM2.92969 42.4995C1.31167 42.4995 0 43.8112 0 45.4292V57.0703C0 58.6883 1.31167 60 2.92969 60H14.5701C16.1881 60 17.4998 58.6883 17.4998 57.0703V45.4292C17.4998 43.8112 16.1881 42.4995 14.5701 42.4995H2.92969ZM12.5003 55.0005H5.00025V47.5005H12.5003V55.0005ZM45.4299 0C43.8119 0 42.5003 1.31167 42.5003 2.92969V14.5701C42.5003 16.1881 43.8119 17.4998 45.4299 17.4998H57.0703C58.6883 17.4998 60 16.1881 60 14.5701V2.92969C60 1.31167 58.6883 0 57.0703 0H45.4299ZM54.9998 12.5003H47.4998V5.00025H54.9998V12.5003ZM25.0001 0C23.6193 0 22.5 1.11934 22.5 2.50012C22.5 3.88091 23.6193 5.00025 25.0001 5.00025H32.4998V14.9996C32.4998 16.3804 33.6191 17.4998 34.9999 17.4998C36.3807 17.4998 37.5 16.3804 37.5 14.9996V2.92969C37.5 1.31167 36.1883 0 34.5703 0H25.0001ZM30 55.0005C28.6194 55.0005 27.5003 53.8813 27.5003 52.5008V44.9996C27.5003 43.6188 26.3809 42.4995 25.0001 42.4995C23.6193 42.4995 22.5 43.6188 22.5 44.9996V57.0703C22.5 58.6883 23.8117 60 25.4297 60H30C31.3806 60 32.4998 58.8808 32.4998 57.5003C32.4998 56.1197 31.3806 55.0005 30 55.0005ZM54.9998 25.0001C54.9998 23.6193 56.1191 22.5 57.4999 22.5C58.8807 22.5 60 23.6193 60 25.0001V30.0004C60 31.3812 58.8807 32.5005 57.4999 32.5005C56.1191 32.5005 54.9998 31.3812 54.9998 30.0004V25.0001ZM50.0003 25.0001C50.0003 23.6193 48.8809 22.5 47.5001 22.5H35.4294C33.8114 22.5 32.4998 23.8117 32.4998 25.4297V30.0004C32.4998 31.3812 33.6191 32.5005 34.9999 32.5005C36.3807 32.5005 37.5 31.3812 37.5 30.0004V27.5003H47.5001C48.8809 27.5003 50.0003 26.3809 50.0003 25.0001ZM9.99975 35.0003C9.99975 33.6197 11.1189 32.5005 12.4995 32.5005H25.0005C26.3811 32.5005 27.5003 33.6197 27.5003 35.0003C27.5003 36.3808 26.3811 37.5 25.0005 37.5H12.4995C11.1189 37.5 9.99975 36.3808 9.99975 35.0003Z" fill="#F97117"/>
<path d="M25.0001 10C23.6193 10 22.5 11.1193 22.5 12.5001V22.5002H2.92969C1.31167 22.5002 0 23.8119 0 25.4299V35.0001C0 36.3809 1.11934 37.5002 2.50012 37.5002C3.88091 37.5002 5.00025 36.3809 5.00025 35.0001V27.5005H24.5706C26.1886 27.5005 27.5002 26.1888 27.5002 24.5708V12.5001C27.5002 11.1193 26.3809 10 25.0001 10Z" fill="#F97117"/>
</svg>
