<svg width="54" height="54" viewBox="0 0 54 54" fill="none" xmlns="http://www.w3.org/2000/svg">
<path fill-rule="evenodd" clip-rule="evenodd" d="M53.3333 26.6667C53.3333 41.3943 41.3943 53.3333 26.6667 53.3333C11.9391 53.3333 0 41.3943 0 26.6667C0 11.9391 11.9391 0 26.6667 0C41.3943 0 53.3333 11.9391 53.3333 26.6667ZM29.3333 13.3333C29.3333 14.8061 28.1394 16 26.6667 16C25.1939 16 24 14.8061 24 13.3333C24 11.8606 25.1939 10.6667 26.6667 10.6667C28.1394 10.6667 29.3333 11.8606 29.3333 13.3333ZM24 19.3333C22.8954 19.3333 22 20.2288 22 21.3333C22 22.4379 22.8954 23.3333 24 23.3333H24.6667V40C24.6667 41.1046 25.5621 42 26.6667 42C27.7712 42 28.6667 41.1046 28.6667 40V21.3333C28.6667 20.2288 27.7712 19.3333 26.6667 19.3333H24Z" fill="#626975"/>
</svg>
