<svg width="102" height="25" viewBox="0 0 102 25" fill="none" xmlns="http://www.w3.org/2000/svg">
<mask id="mask0_723_7332" style="mask-type:luminance" maskUnits="userSpaceOnUse" x="26" y="0" width="20" height="25">
<path d="M35.5243 20.031C32.8209 20.031 31.0002 18.0448 31.0002 15.0655C31.0002 12.1414 32.8761 10.1 35.5243 10.1C38.2278 10.1 40.1588 12.1966 40.1588 15.0655C40.1588 17.9897 38.2278 20.031 35.5243 20.031ZM36.4071 5.68621C34.145 5.68621 32.2692 6.45862 31.0002 7.83793V2.98276C31.0002 1.54828 29.9519 0.5 28.5726 0.5C27.1381 0.5 26.0898 1.60345 26.0898 2.98276V22.0172C26.0898 23.4517 27.1381 24.5 28.5174 24.5C29.7864 24.5 30.7795 23.5621 30.8898 22.1828C32.1036 23.6172 34.0347 24.5 36.4071 24.5C41.4829 24.5 45.1243 20.5276 45.1243 15.0655C45.1243 9.65862 41.4829 5.68621 36.4071 5.68621Z" fill="white"/>
</mask>
<g mask="url(#mask0_723_7332)">
<path d="M45.1795 0.5H26.145V24.5H45.1795V0.5Z" fill="#A0A7B1"/>
</g>
<mask id="mask1_723_7332" style="mask-type:luminance" maskUnits="userSpaceOnUse" x="90" y="5" width="12" height="20">
<path d="M100.517 20.7482L95.3312 14.2931L99.9105 9.65857C100.462 9.10685 100.683 8.55512 100.683 7.89305C100.683 6.67926 99.6898 5.68616 98.4209 5.68616C97.814 5.68616 97.2071 5.96202 96.7105 6.45857L90.9726 12.4724C90.3657 13.1896 90.0898 13.6862 90.0898 14.2931C90.0898 14.8448 90.3105 15.3413 90.8623 16.0586L96.9864 23.6172C97.4829 24.2241 98.0347 24.4999 98.8071 24.4999C100.021 24.4999 101.014 23.5068 101.014 22.2379C101.069 21.7413 100.904 21.2448 100.517 20.7482Z" fill="white"/>
</mask>
<g mask="url(#mask1_723_7332)">
<path d="M101.069 5.68616H90.145V24.4999H101.069V5.68616Z" fill="#A0A7B1"/>
</g>
<mask id="mask2_723_7332" style="mask-type:luminance" maskUnits="userSpaceOnUse" x="84" y="0" width="6" height="25">
<path d="M86.89 0.5C85.4555 0.5 84.4072 1.60345 84.4072 2.98276V22.0172C84.4072 23.4517 85.4555 24.5 86.89 24.5C88.2693 24.5 89.3176 23.4517 89.3176 22.0172V3.03793C89.3176 1.54828 88.3245 0.5 86.89 0.5Z" fill="white"/>
</mask>
<g mask="url(#mask2_723_7332)">
<path d="M89.3728 0.5H84.4624V24.5H89.3728V0.5Z" fill="#A0A7B1"/>
</g>
<mask id="mask3_723_7332" style="mask-type:luminance" maskUnits="userSpaceOnUse" x="65" y="5" width="17" height="20">
<path d="M75.1381 5.68616C73.1519 5.68616 71.3312 6.4034 70.0622 7.56202C69.7864 6.45857 68.9036 5.68616 67.745 5.68616C66.3657 5.68616 65.3174 6.73443 65.3174 8.16892V22.0172C65.3174 23.4517 66.3657 24.4999 67.8001 24.4999C69.1795 24.4999 70.2277 23.4517 70.2277 22.0172V13.5758C70.2277 11.5344 71.6622 10.1 73.6484 10.1C75.6346 10.1 77.0139 11.5344 77.0139 13.5758V22.0172C77.0139 23.4517 78.0622 24.4999 79.4415 24.4999C80.876 24.4999 81.8691 23.4517 81.8691 22.0172V12.9137C81.9243 8.49995 79.276 5.68616 75.1381 5.68616Z" fill="white"/>
</mask>
<g mask="url(#mask3_723_7332)">
<path d="M81.9243 5.68616H65.3726V24.4999H81.9243V5.68616Z" fill="#A0A7B1"/>
</g>
<mask id="mask4_723_7332" style="mask-type:luminance" maskUnits="userSpaceOnUse" x="46" y="5" width="17" height="20">
<path d="M54.1724 20.9137C52.5724 20.9137 51.5793 20.1413 51.5793 18.9275C51.5793 17.7137 52.462 17.1068 54.062 17.1068H57.9241V17.3275C57.9241 19.4241 56.3241 20.9137 54.1724 20.9137ZM55.0551 5.68616C52.462 5.68616 50.0896 6.45857 48.5448 7.89305C47.8827 8.49995 47.5517 9.16202 47.5517 9.87926C47.5517 10.9827 48.4345 11.8655 49.6483 11.8655C50.1448 11.8655 50.531 11.7 51.0827 11.2586C52.131 10.3758 53.2896 9.93443 54.5586 9.93443C56.7655 9.93443 57.9241 11.0931 57.9241 13.0793V13.8517H53.4C49.2069 13.8517 46.6138 15.8379 46.6138 19.0931C46.6138 22.2931 49.0965 24.4999 52.8482 24.4999C55 24.4999 56.8207 23.7827 58.1448 22.5689C58.3655 23.6724 59.3034 24.4448 60.5172 24.4448C61.8414 24.4448 62.8896 23.4517 62.8896 22.0172V13.4103C62.8345 8.49995 60.0207 5.68616 55.0551 5.68616Z" fill="white"/>
</mask>
<g mask="url(#mask4_723_7332)">
<path d="M62.8345 5.68616H46.6138V24.4999H62.8345V5.68616Z" fill="#A0A7B1"/>
</g>
<mask id="mask5_723_7332" style="mask-type:luminance" maskUnits="userSpaceOnUse" x="12" y="5" width="11" height="20">
<path d="M22.0623 8.05857C22.0623 7.45167 21.8416 6.84478 21.345 6.34822C20.4071 5.41029 18.9174 5.41029 17.9795 6.34822L12.9588 11.3689C12.0209 12.3068 12.0209 13.7965 12.9588 14.7344C13.8968 15.6724 15.3864 15.6724 16.3243 14.7344L17.3174 13.7413V22.0724C17.3174 23.3965 18.3657 24.4448 19.6899 24.4448C21.014 24.4448 22.0623 23.3965 22.0623 22.0724V8.05857Z" fill="white"/>
</mask>
<g mask="url(#mask5_723_7332)">
<path d="M22.0624 5.46558H12.021V24.5552H22.0624V5.46558Z" fill="#A0A7B1"/>
</g>
<path fill-rule="evenodd" clip-rule="evenodd" d="M0.931152 8.05867C0.931152 7.45177 1.15184 6.84487 1.64839 6.34832C2.53115 5.46556 4.07598 5.46556 5.01391 6.40349L10.0346 11.4242C10.9725 12.3621 10.9725 13.8518 10.0346 14.7897C9.09667 15.7276 7.60701 15.7276 6.66908 14.7897L5.67598 13.7966V22.1276C5.67598 23.4518 4.6277 24.5 3.30357 24.5C1.97943 24.5 0.931152 23.4518 0.931152 22.1276V8.05867Z" fill="#A0A7B1"/>
</svg>
