<svg width="21" height="20" viewBox="0 0 21 20" fill="none" xmlns="http://www.w3.org/2000/svg">
<g clip-path="url(#clip0_1173_4425)">
<g filter="url(#filter0_dd_1173_4425)">
<path d="M20.1541 3.50665C20.1541 2.94786 19.945 2.38906 19.5267 1.96996C18.6902 1.13176 17.2959 1.13176 16.4594 1.96996L11.8584 6.58005C11.0218 7.41825 11.0218 8.81524 11.8584 9.65344C12.6949 10.4916 14.0892 10.4916 14.9257 9.65344L15.832 8.74539V16.359C15.832 17.5465 16.808 18.5244 17.9931 18.5244C19.1782 18.5244 20.1541 17.5465 20.1541 16.359V3.50665Z" fill="white"/>
<path fill-rule="evenodd" clip-rule="evenodd" d="M0.84375 3.50665C0.84375 2.94786 1.05289 2.38906 1.47116 1.96996C2.30771 1.13176 3.70196 1.13176 4.53851 1.96996L9.13953 6.58005C9.97608 7.41825 9.97608 8.81525 9.13953 9.65344C8.30298 10.4916 6.90873 10.4916 6.07218 9.65344L5.16592 8.81525V16.4289C5.16592 17.6163 4.18995 18.5942 3.00484 18.5942C1.81972 18.5942 0.84375 17.6163 0.84375 16.4289V3.50665Z" fill="#FABF00"/>
</g>
</g>
<defs>
<filter id="filter0_dd_1173_4425" x="-5.15625" y="-2.65869" width="31.3103" height="29.2529" filterUnits="userSpaceOnUse" color-interpolation-filters="sRGB">
<feFlood flood-opacity="0" result="BackgroundImageFix"/>
<feColorMatrix in="SourceAlpha" type="matrix" values="0 0 0 0 0 0 0 0 0 0 0 0 0 0 0 0 0 0 127 0" result="hardAlpha"/>
<feOffset dy="2"/>
<feGaussianBlur stdDeviation="3"/>
<feColorMatrix type="matrix" values="0 0 0 0 0.0666667 0 0 0 0 0.0823529 0 0 0 0 0.129412 0 0 0 0.06 0"/>
<feBlend mode="normal" in2="BackgroundImageFix" result="effect1_dropShadow_1173_4425"/>
<feColorMatrix in="SourceAlpha" type="matrix" values="0 0 0 0 0 0 0 0 0 0 0 0 0 0 0 0 0 0 127 0" result="hardAlpha"/>
<feOffset/>
<feGaussianBlur stdDeviation="1"/>
<feColorMatrix type="matrix" values="0 0 0 0 0.0666667 0 0 0 0 0.0823529 0 0 0 0 0.129412 0 0 0 0.02 0"/>
<feBlend mode="normal" in2="effect1_dropShadow_1173_4425" result="effect2_dropShadow_1173_4425"/>
<feBlend mode="normal" in="SourceGraphic" in2="effect2_dropShadow_1173_4425" result="shape"/>
</filter>
<clipPath id="clip0_1173_4425">
<rect width="19.3103" height="19.3103" fill="white" transform="translate(0.84375 0.34375)"/>
</clipPath>
</defs>
</svg>
