<svg width="40" height="40" viewBox="0 0 40 40" fill="none" xmlns="http://www.w3.org/2000/svg">
<rect width="40" height="40" rx="20" fill="#27272A"/>
<path fill-rule="evenodd" clip-rule="evenodd" d="M20.0516 10H19.9484C18.2682 9.99999 16.9373 9.99997 15.8958 10.1425C14.8238 10.2891 13.9562 10.598 13.272 11.2942C12.5878 11.9903 12.2841 12.8731 12.14 13.9637C12 15.0234 12 16.3775 12 18.087V21.9129C12 23.6225 12 24.9766 12.14 26.0363C12.2841 27.1269 12.5878 28.0097 13.272 28.7058C13.9562 29.402 14.8238 29.7109 15.8958 29.8575C16.9373 30 18.2682 30 19.9484 30H20.0516C21.7318 30 23.0627 30 24.1043 29.8575C25.1762 29.7109 26.0438 29.402 26.728 28.7058C27.4122 28.0097 27.7159 27.1269 27.86 26.0363C28 24.9766 28 23.6225 28 21.913V18.0871C28 16.3775 28 15.0234 27.86 13.9637C27.7159 12.8731 27.4122 11.9903 26.728 11.2942C26.0438 10.598 25.1762 10.2891 24.1043 10.1425C23.0627 9.99997 21.7318 9.99999 20.0516 10ZM16.5714 26.5116C16.5714 26.1263 16.8784 25.814 17.2571 25.814H22.7429C23.1216 25.814 23.4286 26.1263 23.4286 26.5116C23.4286 26.8969 23.1216 27.2093 22.7429 27.2093H17.2571C16.8784 27.2093 16.5714 26.8969 16.5714 26.5116Z" fill="#6B6C70"/>
</svg>
