<svg width="40" height="40" viewBox="0 0 40 40" fill="none" xmlns="http://www.w3.org/2000/svg">
<rect width="40" height="40" rx="20" fill="url(#paint0_linear_3416_7793)"/>
<path d="M24.5187 21.0375C22.5991 21.0375 21.0375 22.5991 21.0375 24.5187C21.0375 26.4382 22.5991 27.9999 24.5187 28C26.4383 27.9999 27.9999 26.4382 27.9999 24.5187C27.9999 22.5991 26.4383 21.0375 24.5187 21.0375ZM24.5187 25.5228C23.964 25.5228 23.5144 25.0732 23.5144 24.5187C23.5144 23.9641 23.9641 23.5145 24.5187 23.5145C25.0734 23.5145 25.523 23.9641 25.523 24.5187C25.5229 25.0732 25.0732 25.5228 24.5187 25.5228Z" fill="white"/>
<path d="M15.4812 18.9625C17.4008 18.9624 18.9625 17.4008 18.9625 15.4812C18.9625 14.5514 18.6004 13.6771 17.9428 13.0197C17.2853 12.3621 16.4111 12 15.4812 12C14.5514 12 13.677 12.3621 13.0195 13.0197C12.3621 13.6771 12 14.5514 12 15.4812C12 17.4008 13.5617 18.9624 15.4812 18.9625ZM15.4812 14.4771C16.0358 14.4771 16.4854 14.9266 16.4854 15.4812C16.4854 16.0358 16.0358 16.4855 15.4812 16.4855C14.9267 16.4855 14.4771 16.0358 14.4771 15.4812C14.4771 14.9266 14.9267 14.4771 15.4812 14.4771Z" fill="white"/>
<path d="M28 13.4729C28 13.0795 27.8468 12.7096 27.5686 12.4314C27.2904 12.1532 26.9205 12 26.5271 12C26.1338 12 25.7639 12.1531 25.4854 12.4314L12.4312 25.4855C11.857 26.0597 11.857 26.9941 12.4312 27.5685C12.7094 27.8467 13.0793 28 13.4729 28C13.8663 28 14.2362 27.8468 14.5144 27.5685L27.5686 14.5144C27.8468 14.2362 28 13.8663 28 13.4729Z" fill="white"/>
<defs>
<linearGradient id="paint0_linear_3416_7793" x1="40" y1="40" x2="40.1579" y2="0.159151" gradientUnits="userSpaceOnUse">
<stop stop-color="#0179C2"/>
<stop offset="1" stop-color="#0198F4"/>
</linearGradient>
</defs>
</svg>
