<svg width="64" height="64" viewBox="0 0 64 64" fill="none" xmlns="http://www.w3.org/2000/svg">
<path opacity="0.5" d="M31.9997 58.6668C46.7273 58.6668 58.6663 46.7278 58.6663 32.0002C58.6663 17.2726 46.7273 5.3335 31.9997 5.3335C17.2721 5.3335 5.33301 17.2726 5.33301 32.0002C5.33301 46.7278 17.2721 58.6668 31.9997 58.6668Z" fill="#6B6C70"/>
<path d="M22.3929 46.5243C23.0507 47.4117 24.3033 47.5978 25.1906 46.9401C27.1329 45.5004 29.4773 44.6667 31.9997 44.6667C34.5221 44.6667 36.8665 45.5004 38.8087 46.9401C39.6961 47.5978 40.9487 47.4117 41.6064 46.5243C42.2642 45.6369 42.078 44.3844 41.1906 43.7266C38.5975 41.8045 35.4263 40.6667 31.9997 40.6667C28.5731 40.6667 25.4018 41.8045 22.8087 43.7266C21.9213 44.3844 21.7352 45.6369 22.3929 46.5243Z" fill="#939498"/>
<path d="M39.9997 32C41.4724 32 42.6663 30.2091 42.6663 28C42.6663 25.7909 41.4724 24 39.9997 24C38.5269 24 37.333 25.7909 37.333 28C37.333 30.2091 38.5269 32 39.9997 32Z" fill="#939498"/>
<path d="M23.9997 32C25.4724 32 26.6663 30.2091 26.6663 28C26.6663 25.7909 25.4724 24 23.9997 24C22.5269 24 21.333 25.7909 21.333 28C21.333 30.2091 22.5269 32 23.9997 32Z" fill="#939498"/>
</svg>
