<svg width="64" height="64" viewBox="0 0 64 64" fill="none" xmlns="http://www.w3.org/2000/svg">
<path opacity="0.5" d="M31.9999 58.6668C46.7275 58.6668 58.6666 46.7278 58.6666 32.0002C58.6666 17.2726 46.7275 5.3335 31.9999 5.3335C17.2723 5.3335 5.33325 17.2726 5.33325 32.0002C5.33325 46.7278 17.2723 58.6668 31.9999 58.6668Z" fill="#A0A7B1"/>
<path d="M22.3932 46.5243C23.0509 47.4117 24.3035 47.5978 25.1909 46.9401C27.1331 45.5004 29.4775 44.6667 31.9999 44.6667C34.5223 44.6667 36.8667 45.5004 38.809 46.9401C39.6963 47.5978 40.9489 47.4117 41.6067 46.5243C42.2644 45.6369 42.0783 44.3844 41.1909 43.7266C38.5978 41.8045 35.4265 40.6667 31.9999 40.6667C28.5733 40.6667 25.402 41.8045 22.809 43.7266C21.9216 44.3844 21.7354 45.6369 22.3932 46.5243Z" fill="#626975"/>
<path d="M39.9999 32C41.4727 32 42.6666 30.2091 42.6666 28C42.6666 25.7909 41.4727 24 39.9999 24C38.5272 24 37.3333 25.7909 37.3333 28C37.3333 30.2091 38.5272 32 39.9999 32Z" fill="#626975"/>
<path d="M23.9999 32C25.4727 32 26.6666 30.2091 26.6666 28C26.6666 25.7909 25.4727 24 23.9999 24C22.5272 24 21.3333 25.7909 21.3333 28C21.3333 30.2091 22.5272 32 23.9999 32Z" fill="#626975"/>
</svg>
