<svg width="60" height="61" viewBox="0 0 60 61" fill="none" xmlns="http://www.w3.org/2000/svg">
<path opacity="0.5" d="M30 0.5C46.5685 0.5 60 13.9315 60 30.5C60 47.0685 46.5685 60.5 30 60.5C13.4315 60.5 0 47.0685 0 30.5C0 13.9315 13.4315 0.5 30 0.5ZM30 40.25C26.1451 40.25 22.5774 41.53 19.6602 43.6924C18.6619 44.4324 18.4524 45.8415 19.1924 46.8398C19.9324 47.8381 21.3415 48.0476 22.3398 47.3076C24.5249 45.688 27.1623 44.75 30 44.75C32.8377 44.75 35.4751 45.688 37.6602 47.3076C38.6585 48.0476 40.0676 47.8381 40.8076 46.8398C41.5476 45.8415 41.3381 44.4324 40.3398 43.6924C37.4226 41.53 33.8549 40.25 30 40.25ZM21 21.5C19.3431 21.5 18 23.5147 18 26C18 28.4853 19.3431 30.5 21 30.5C22.6569 30.5 24 28.4853 24 26C24 23.5147 22.6569 21.5 21 21.5ZM39 21.5C37.3431 21.5 36 23.5147 36 26C36 28.4853 37.3431 30.5 39 30.5C40.6569 30.5 42 28.4853 42 26C42 23.5147 40.6569 21.5 39 21.5Z" fill="#626975"/>
</svg>
