<svg width="40" height="40" viewBox="0 0 40 40" fill="none" xmlns="http://www.w3.org/2000/svg">
<g clip-path="url(#clip0_1695_6043)">
<g clip-path="url(#clip1_1695_6043)">
<rect width="40" height="40" fill="#E3E5E8"/>
<path d="M20 40C31.0457 40 40 31.0457 40 20C40 8.9543 31.0457 0 20 0C8.9543 0 0 8.9543 0 20C0 31.0457 8.9543 40 20 40Z" fill="#F0F0F0"/>
<path d="M40.0002 20C40.0002 12.0707 35.3857 5.2195 28.6958 1.9845V38.0154C35.3857 34.7804 40.0002 27.9292 40.0002 20Z" fill="#D80027"/>
<path d="M0 20C0 27.9292 4.61445 34.7804 11.3044 38.0154V1.9845C4.61445 5.2195 0 12.0707 0 20Z" fill="#D80027"/>
<path d="M23.4782 22.6086L26.9564 20.8694L25.2174 19.9999V18.2608L21.7391 19.9999L23.4782 16.5216H21.7391L19.9999 13.913L18.2608 16.5216H16.5217L18.2608 19.9999L14.7825 18.2608V19.9999L13.0435 20.8694L16.5217 22.6086L15.6521 24.3477H19.1304V26.9564H20.8695V24.3477H24.3478L23.4782 22.6086Z" fill="#D80027"/>
</g>
</g>
<defs>
<clipPath id="clip0_1695_6043">
<rect width="40" height="40" rx="20" fill="white"/>
</clipPath>
<clipPath id="clip1_1695_6043">
<rect width="40" height="40" fill="white"/>
</clipPath>
</defs>
</svg>
