<svg width="40" height="40" viewBox="0 0 40 40" fill="none" xmlns="http://www.w3.org/2000/svg">
<g clip-path="url(#clip0_1695_4928)">
<g clip-path="url(#clip1_1695_4928)">
<rect width="40" height="40" rx="20" fill="#E3E5E8"/>
<path d="M0 0H40V40H0V0Z" fill="#012169"/>
<path d="M40 0V5L25.1562 20L40 34.6094V40H34.7656L19.8438 25.3125L5.3125 40H0V34.6875L14.5312 20.0781L0 5.78125V0H4.84375L19.8438 14.6875L34.375 0H40Z" fill="white"/>
<path d="M14.375 25.3125L15.2344 27.9688L3.28125 40H0V39.7656L14.375 25.3125ZM24.0625 24.375L28.2812 25L40 36.4844V40L24.0625 24.375ZM40 0L25 15.3125L24.6875 11.875L36.4062 0H40ZM0 0.078125L15.0781 14.8438L10.4688 14.2188L0 3.82812V0.078125Z" fill="#C8102E"/>
<path d="M13.75 0V40H26.25V0H13.75ZM0 13.75V26.25H40V13.75H0Z" fill="white"/>
<path d="M0 16.25V23.75H40V16.25H0ZM16.25 0V40H23.75V0H16.25Z" fill="#C8102E"/>
</g>
</g>
<defs>
<clipPath id="clip0_1695_4928">
<rect width="40" height="40" rx="20" fill="white"/>
</clipPath>
<clipPath id="clip1_1695_4928">
<rect width="40" height="40" rx="20" fill="white"/>
</clipPath>
</defs>
</svg>
