<svg width="40" height="40" viewBox="0 0 40 40" fill="none" xmlns="http://www.w3.org/2000/svg">
<g clip-path="url(#clip0_1695_8253)">
<rect width="40" height="40" fill="#E3E5E8"/>
<g clip-path="url(#clip1_1695_8253)">
<rect width="40" height="40" rx="20" fill="#009C4D"/>
<g clip-path="url(#clip2_1695_8253)">
<path fill-rule="evenodd" clip-rule="evenodd" d="M-9.8667 0H50.1958V40H-9.8667V0Z" fill="#FF0000"/>
<path fill-rule="evenodd" clip-rule="evenodd" d="M6.8394 20.4487C8.04014 18.9831 10.5387 20.4134 12.5782 19.3627C10.1591 19.4951 8.84358 18.1973 6.93651 18.3827C8.91421 17.1643 10.6005 18.78 12.8078 18.1355C9.8854 17.8883 10.009 16.5728 7.34265 16.3873C9.70882 15.3808 10.8742 17.4292 13.1963 16.9612C10.4593 16.3344 10.1061 14.7275 8.07545 14.3832C11.042 13.9417 10.8478 15.6899 13.7525 15.9018C10.8036 14.6392 11.5717 13.5356 9.10845 12.5732C11.8719 12.5114 11.6865 14.4273 14.4941 14.9217C12.0926 13.4031 12.384 12.017 10.4151 10.931C12.7548 10.9752 12.9755 13.3678 15.3682 14.1095C13.2404 12.4231 13.7966 10.9928 11.9602 9.48307C14.2911 10.0305 13.9467 12.0965 16.3747 13.4208C14.5736 11.4255 15.2623 9.99516 13.6995 8.36179C15.9421 9.07694 15.0857 11.0458 17.4077 12.9176C16.0833 10.7191 16.9044 9.31532 15.5889 7.47006C17.6726 8.53837 16.6661 10.5514 18.5908 12.5467C17.6814 10.2953 18.5908 8.90036 17.6637 6.90501C19.4472 8.22936 18.3877 10.3748 19.8268 12.4231C19.2971 9.59785 20.5155 9.13874 20.1359 6.66663C21.4867 8.32648 19.9769 9.98633 21.0188 12.432C20.8863 9.65083 22.3696 9.00631 22.1136 6.7814C23.4467 8.77676 21.3631 10.5161 22.2372 12.6527C22.4579 10.0216 24.1884 9.33298 24.2148 7.28466C25.2743 9.16523 22.9788 10.5249 23.3496 13.0235C24.1001 10.2689 25.9453 9.93335 26.1749 8.07926C26.8017 10.2512 24.2855 11.2577 24.4356 13.6768C25.186 11.2312 27.4904 10.9399 27.9672 9.13874C28.2585 11.4343 25.9895 11.8492 25.345 14.392C26.5369 12.3172 28.6293 12.1494 29.5652 10.5072C29.4946 12.7851 26.9342 13.0853 26.1484 15.2131C27.6228 13.4031 29.4769 13.7122 30.9514 12.1141C30.7924 14.1713 28.1879 14.0565 26.8017 16.1843C28.3998 14.7098 30.8101 15.1513 32.0373 13.8799C31.9755 15.6987 28.7794 15.5574 27.2697 17.1908C29.1238 16.1666 31.4899 16.767 32.8496 15.8223C32.6024 17.4115 29.2297 17.0407 27.614 18.2944C29.8389 17.6764 31.5606 18.6211 33.3529 17.9412C32.4788 19.4863 29.4151 18.5063 27.7906 19.5128C29.733 19.1861 31.7813 20.3604 33.5383 19.9807C32.9644 21.3228 29.6005 19.8925 27.7994 20.7312C29.9537 20.7135 31.3575 22.0997 33.3617 22.0026C32.2757 23.221 29.3268 21.5523 27.6052 21.8348C29.7065 22.2763 31.3134 24.0068 32.9026 24.0951C31.5871 25.0927 29.1503 22.8149 27.1637 23.0974C29.2121 23.6448 30.9249 25.9668 32.0903 26.0198C30.8278 26.885 28.338 24.0333 26.634 24.1392C28.7088 25.0751 29.6535 27.4501 31.022 27.7856C29.3357 28.3241 27.6758 25.2075 25.8659 25.0927C27.9672 26.4171 28.0819 28.4477 29.6977 29.3483C27.9937 29.7633 26.7841 26.2405 24.9918 25.9403C26.7135 27.2029 26.9783 29.9134 28.1173 30.7609C26.3868 30.8492 25.7599 27.1675 23.9853 26.6378C25.5039 27.9092 25.1419 30.6638 26.325 31.8469C24.5239 31.4673 24.7534 28.2623 22.8728 27.1764C24.2237 28.8892 23.535 31.3172 24.4179 32.6857C22.6609 31.9793 23.4202 29.1011 21.7516 27.4766C22.6609 29.2953 21.6809 31.4143 22.4049 33.1713C20.798 32.3855 21.8752 28.9863 20.6479 27.6355C21.213 29.7368 20.1712 31.4761 20.595 33.3567C18.9528 31.4584 20.8422 29.5425 19.4207 27.609C19.7915 29.8251 18.2376 31.379 18.4848 33.2331C17.187 31.7145 19.1912 29.2865 18.1758 27.3706C18.3877 29.5514 16.3835 31.4673 16.5248 32.8446C15.4653 31.0788 17.6991 28.9951 17.0987 26.991C16.9751 29.0746 14.9444 30.2047 14.5648 32.1029C13.8849 30.0105 16.2952 28.5007 16.0833 26.4436C15.3947 28.3948 13.4347 29.1806 12.746 31.0788C12.1809 28.9863 15.0415 27.8827 15.1122 25.6931C14.2293 27.7414 11.8896 28.2005 11.1126 29.7721C10.8213 27.6973 14.0968 26.7702 14.2204 24.8014C13.161 26.6908 10.6005 26.7702 9.71765 28.2712C9.58521 26.2052 13.0373 25.9491 13.5759 23.786C12.5253 25.3929 9.71765 25.1898 8.54339 26.4965C8.7288 24.5806 12.4635 24.4659 13.0638 22.7354C11.6689 24.0774 9.09079 23.53 7.634 24.5895C8.44627 22.7001 11.9514 23.0974 12.7372 21.7377C11.1921 22.5412 8.44627 21.7554 7.08661 22.5676C8.32267 20.7842 11.042 21.8525 12.5871 20.6253C10.0796 20.9872 8.56988 19.9896 6.83057 20.4487H6.8394Z" fill="#FFFF00"/>
<path fill-rule="evenodd" clip-rule="evenodd" d="M28.9557 20.0073C28.9557 22.3313 28.0325 24.5601 26.3892 26.2035C24.7458 27.8468 22.517 28.77 20.1929 28.77C17.8689 28.77 15.6401 27.8468 13.9967 26.2035C12.3534 24.5601 11.4302 22.3313 11.4302 20.0073C11.4302 17.6844 12.3529 15.4567 13.9954 13.8142C15.638 12.1717 17.8657 11.2489 20.1885 11.2489C22.5114 11.2489 24.7391 12.1717 26.3816 13.8142C28.0241 15.4567 28.9469 17.6844 28.9469 20.0073H28.9557Z" fill="#FFFF00"/>
<path fill-rule="evenodd" clip-rule="evenodd" d="M27.8258 20.0248C27.8258 22.0456 27.023 23.9836 25.5941 25.4126C24.1652 26.8415 22.2271 27.6442 20.2063 27.6442C18.1855 27.6442 16.2475 26.8415 14.8186 25.4126C13.3897 23.9836 12.5869 22.0456 12.5869 20.0248C12.5869 18.004 13.3897 16.066 14.8186 14.6371C16.2475 13.2082 18.1855 12.4054 20.2063 12.4054C22.2271 12.4054 24.1652 13.2082 25.5941 14.6371C27.023 16.066 27.8258 18.004 27.8258 20.0248Z" fill="#FF0000"/>
<path fill-rule="evenodd" clip-rule="evenodd" d="M26.7662 20.0426C26.7662 21.7778 26.0769 23.4418 24.85 24.6687C23.6231 25.8957 21.959 26.5849 20.2239 26.5849C18.4888 26.5849 16.8247 25.8957 15.5978 24.6687C14.3709 23.4418 13.6816 21.7778 13.6816 20.0426C13.6816 18.3075 14.3709 16.6435 15.5978 15.4166C16.8247 14.1896 18.4888 13.5004 20.2239 13.5004C21.959 13.5004 23.6231 14.1896 24.85 15.4166C26.0769 16.6435 26.7662 18.3075 26.7662 20.0426Z" fill="#FFFF00"/>
<path fill-rule="evenodd" clip-rule="evenodd" d="M14.6531 15.7605C16.463 15.7164 18.7144 15.8841 20.2065 17.0672C21.8006 16.0724 23.6773 15.6288 25.5481 15.8047L26.5192 17.5793C25.0101 17.4416 23.4908 17.6908 22.1048 18.3033C23.0954 19.0339 23.8918 19.9962 24.4244 21.106C24.957 22.2157 25.2094 23.4391 25.1596 24.669C24.9212 24.9692 24.5416 25.2958 24.3032 25.596C24.6563 23.0798 23.332 20.2722 21.3984 18.7977C22.97 21.0579 23.897 23.0886 23.641 25.8962L22.7581 26.4613C23.1642 23.9892 22.5815 21.0756 20.7539 19.3981C21.8134 20.9432 22.8552 23.7243 22.2019 26.5496C21.9193 26.6379 21.4779 26.8762 21.1954 26.9557C21.5415 25.7965 21.6355 24.5767 21.471 23.3782C21.3065 22.1797 20.8874 21.0303 20.2418 20.0073C19.0234 21.7554 18.6261 24.4218 19.3148 26.8939C18.9793 26.8056 18.7233 26.6997 18.3789 26.6202C17.8757 23.9715 18.5732 20.9696 19.7827 19.4069C18.5467 20.1221 17.3901 23.1769 17.7167 26.2935L16.8957 25.9139C16.4983 23.5919 17.549 20.5635 19.0588 18.8154C17.3459 19.8925 15.9509 22.55 16.1893 25.4018C15.9245 25.1722 15.6861 25.0575 15.4212 24.8191C15.121 22.3293 16.569 19.8219 18.2553 18.3209C16.8338 17.6764 15.6066 17.5528 13.8408 17.5793C14.1145 17.0054 14.3706 16.3344 14.6531 15.7517V15.7605Z" fill="#FF0000"/>
</g>
</g>
</g>
<defs>
<clipPath id="clip0_1695_8253">
<rect width="40" height="40" rx="20" fill="white"/>
</clipPath>
<clipPath id="clip1_1695_8253">
<rect width="40" height="40" rx="20" fill="white"/>
</clipPath>
<clipPath id="clip2_1695_8253">
<rect width="53.3333" height="40" fill="white" transform="translate(-6.5)"/>
</clipPath>
</defs>
</svg>
