<svg width="40" height="40" viewBox="0 0 40 40" fill="none" xmlns="http://www.w3.org/2000/svg">
<g clip-path="url(#clip0_892_4577)">
<path d="M0 20C0 31.0457 8.95431 40 20 40C31.0457 40 40 31.0457 40 20C40 8.9543 31.0457 0 20 0C8.95431 0 0 8.9543 0 20Z" fill="#E3000F"/>
<path d="M20.0002 27.4395C20.2701 27.4395 20.4902 27.6588 20.4904 27.9287C20.4904 27.9432 20.4896 27.9571 20.4884 27.9717L20.0392 32.2725C20.0378 32.2928 20.0206 32.3086 20.0002 32.3086C19.9799 32.3084 19.9646 32.2926 19.9621 32.2734L19.5109 27.9561V27.9287C19.5111 27.6589 19.7304 27.4397 20.0002 27.4395ZM18.8351 27.3506C19.1026 27.3917 19.2855 27.6417 19.2433 27.9092C19.2409 27.9225 19.2391 27.9366 19.2355 27.9512L18.1232 32.1289C18.1184 32.1482 18.1007 32.1616 18.0802 32.1582C18.0596 32.1558 18.047 32.1375 18.047 32.1182L18.2726 27.7842C18.2738 27.7757 18.2743 27.7663 18.2755 27.7578C18.3169 27.4905 18.5677 27.3084 18.8351 27.3506ZM21.1642 27.3506C21.4305 27.3094 21.6812 27.4904 21.7238 27.7578C21.7262 27.7711 21.7287 27.7853 21.7287 27.7998L21.9533 32.1172C21.9544 32.1365 21.9406 32.1546 21.9201 32.1582C21.8995 32.1618 21.881 32.1492 21.8761 32.1299L20.7609 27.9355C20.7585 27.9271 20.7572 27.9177 20.756 27.9092C20.7152 27.643 20.8969 27.3931 21.1642 27.3506ZM17.0822 27.3916C17.1657 27.1337 17.4427 26.9928 17.6994 27.0762C17.9573 27.1597 18.0984 27.4376 18.0148 27.6943C18.0112 27.7063 18.0061 27.7193 18.0002 27.7324L16.2443 31.6846C16.237 31.7039 16.2158 31.7141 16.1964 31.708C16.1772 31.702 16.1664 31.6824 16.1711 31.6631L17.0753 27.417H17.0744C17.0768 27.4086 17.0798 27.4 17.0822 27.3916ZM22.3009 27.0771C22.5587 26.994 22.8346 27.136 22.9181 27.3926C22.9217 27.4047 22.9252 27.4181 22.9289 27.4326L23.8293 31.6611C23.8341 31.6804 23.8231 31.7018 23.8039 31.708C23.7846 31.7152 23.7634 31.7055 23.756 31.6875L21.9943 27.7197C21.9919 27.7125 21.9879 27.7038 21.9855 27.6953C21.9019 27.4374 22.0442 27.1607 22.3009 27.0771ZM23.3781 26.6318C23.619 26.5083 23.9137 26.6039 24.0373 26.8447C24.0433 26.8568 24.0478 26.8695 24.0539 26.8828L25.6095 30.917C25.6166 30.9351 25.609 30.9572 25.591 30.9668C25.5729 30.9763 25.552 30.97 25.5412 30.9531L23.1769 27.3125V27.3135C23.1733 27.3064 23.1687 27.2992 23.1652 27.291C23.0417 27.0501 23.1372 26.7554 23.3781 26.6318ZM15.963 26.8438C16.0854 26.603 16.3804 26.5076 16.6212 26.6309C16.8623 26.7544 16.9586 27.049 16.8351 27.29C16.8291 27.3021 16.8218 27.3141 16.8146 27.3262L14.4591 30.9521C14.4482 30.9691 14.4255 30.9765 14.4074 30.9668C14.3893 30.9571 14.3826 30.9361 14.3898 30.918L15.9523 26.8672C15.9559 26.8599 15.9594 26.851 15.963 26.8438ZM14.9435 26.127C15.1034 25.9079 15.408 25.8609 15.6271 26.0195C15.8462 26.1781 15.8939 26.4839 15.7355 26.7031C15.7283 26.714 15.7198 26.7255 15.7101 26.7363L12.8156 29.9492C12.8035 29.9638 12.7798 29.9672 12.7628 29.9551C12.7461 29.9429 12.7425 29.9212 12.7521 29.9043L14.9289 26.1484C14.9336 26.1413 14.9387 26.1341 14.9435 26.127ZM24.3742 26.0176C24.5934 25.8592 24.8992 25.9069 25.0578 26.126C25.0662 26.1369 25.0739 26.149 25.0812 26.1611L27.2482 29.9033C27.2588 29.9202 27.2551 29.943 27.2384 29.9551C27.2228 29.9659 27.201 29.9635 27.1877 29.9492L24.2814 26.7236V26.7227C24.2766 26.7167 24.2705 26.7093 24.2658 26.7021C24.1073 26.483 24.155 26.1762 24.3742 26.0176ZM14.0441 25.2617C14.2354 25.0705 14.5461 25.0705 14.7375 25.2617C14.9288 25.4531 14.9288 25.7637 14.7375 25.9551C14.7279 25.9647 14.718 25.9729 14.7072 25.9824L11.3488 28.7051C11.3343 28.7172 11.3106 28.7177 11.2961 28.7031C11.2816 28.6886 11.282 28.6649 11.2941 28.6504L14.0265 25.2812C14.0325 25.2741 14.0381 25.2677 14.0441 25.2617ZM25.2619 25.2617C25.4532 25.0708 25.763 25.0708 25.9543 25.2617C25.9639 25.2714 25.9729 25.2811 25.9826 25.292L28.7052 28.6504C28.7186 28.6649 28.7178 28.6886 28.7033 28.7031C28.6887 28.7174 28.666 28.7171 28.6515 28.7051L25.2814 25.9727C25.2742 25.9667 25.2679 25.9611 25.2619 25.9551C25.0705 25.7637 25.0705 25.4531 25.2619 25.2617ZM20.0002 12.5635C24.107 12.5635 27.4367 15.8932 27.4367 20C27.4367 24.1068 24.107 27.4365 20.0002 27.4365C15.8936 27.4363 12.5646 24.1067 12.5646 20C12.5646 15.8933 15.8936 12.5637 20.0002 12.5635ZM13.2961 24.2656C13.5153 24.107 13.822 24.1538 13.9806 24.373C14.1392 24.5923 14.0914 24.899 13.8722 25.0576C13.8614 25.066 13.8491 25.0729 13.8371 25.0801L10.0959 27.2471C10.0789 27.2578 10.0561 27.2542 10.0441 27.2373C10.0321 27.2216 10.0345 27.1998 10.049 27.1865L13.2755 24.2812C13.2816 24.2764 13.2888 24.2704 13.2961 24.2656ZM26.0197 24.3721C26.1783 24.1529 26.485 24.106 26.7043 24.2646C26.715 24.273 26.7257 24.2815 26.7365 24.291L29.9494 27.1855C29.9638 27.1976 29.9681 27.2204 29.9562 27.2373C29.9441 27.2542 29.9224 27.2576 29.9054 27.248L26.1486 25.0723L26.1496 25.0713C26.1423 25.0664 26.1344 25.0615 26.1271 25.0566C25.908 24.898 25.8611 24.5912 26.0197 24.3721ZM20.0002 13.4551C16.3853 13.4553 13.4562 16.385 13.4562 20C13.4562 23.615 16.3853 26.5447 20.0002 26.5449C23.6153 26.5449 26.5451 23.6151 26.5451 20C26.5451 16.3849 23.6153 13.4551 20.0002 13.4551ZM20.0002 20.7168C21.0562 21.9158 21.9202 23.3282 22.4591 24.9111L22.5353 25.1436C21.7687 25.5129 20.9084 25.7197 20.0002 25.7197C19.092 25.7197 18.2334 25.5126 17.4669 25.1445L17.5421 24.9111C18.0811 23.3271 18.9441 21.9157 20.0002 20.7168ZM12.7101 23.166C12.951 23.0426 13.2448 23.1381 13.3683 23.3789C13.4918 23.6199 13.3964 23.9146 13.1554 24.0381C13.1435 24.0441 13.1314 24.0487 13.1183 24.0547L9.08414 25.6094C9.06604 25.6166 9.04408 25.6098 9.03433 25.5918C9.02471 25.5738 9.03033 25.5529 9.04703 25.542L12.6877 23.1768L12.6867 23.1777C12.6939 23.1741 12.7016 23.1696 12.7101 23.166ZM26.63 23.3779C26.7536 23.1369 27.0482 23.0415 27.2892 23.165C27.3012 23.1711 27.3134 23.1784 27.3253 23.1855L30.9513 25.541C30.9682 25.5519 30.9756 25.5737 30.966 25.5918C30.9563 25.6099 30.9353 25.6166 30.9171 25.6094L26.8673 24.0488L26.8664 24.0479C26.8591 24.0442 26.8514 24.0398 26.8429 24.0361C26.6023 23.9137 26.5067 23.6187 26.63 23.3779ZM19.5695 20.251C18.5002 21.4233 17.5941 22.8594 16.9474 24.6045L16.8703 24.8145C16.668 24.6861 16.4723 24.5449 16.2882 24.3936H16.2902C16.8958 22.634 17.9011 21.0872 19.1242 19.8096C19.2755 19.9525 19.4242 20.1008 19.5695 20.251ZM20.8752 19.8096C22.0995 21.0872 23.1048 22.6339 23.7091 24.3936C23.5252 24.5448 23.3301 24.6852 23.1281 24.8135L23.0509 24.6045C22.4042 22.8594 21.4982 21.4233 20.4289 20.251C20.5742 20.1008 20.7238 19.9525 20.8752 19.8096ZM18.6632 19.3936C17.485 20.584 16.481 22.0711 15.7677 23.9082C15.5921 23.7241 15.4286 23.5291 15.2785 23.3232L15.4064 23.0137C16.0745 21.4792 17.0493 20.1289 18.1925 19.0049C18.3511 19.1308 18.5083 19.2604 18.6632 19.3936ZM21.8087 19.0049C23.0282 20.2038 24.0553 21.6605 24.7238 23.3232C24.5736 23.5291 24.4101 23.7241 24.2345 23.9082H24.2336C23.5203 22.0712 22.5163 20.584 21.338 19.3936C21.493 19.2604 21.649 19.1308 21.8087 19.0049ZM12.3058 21.9834C12.5636 21.9002 12.8395 22.0423 12.923 22.2988C13.0064 22.5566 12.8649 22.8323 12.6086 22.916C12.5954 22.9196 12.5828 22.9232 12.5685 22.9268L8.33902 23.8281C8.31964 23.833 8.29918 23.8221 8.29312 23.8027C8.28589 23.7834 8.2955 23.7631 8.31363 23.7559L12.2814 21.9932V21.9922C12.2886 21.9898 12.2974 21.9858 12.3058 21.9834ZM27.0783 22.2998C27.1618 22.042 27.4388 21.902 27.6955 21.9854C27.7075 21.989 27.7213 21.993 27.7345 21.999L31.6867 23.7559C31.7046 23.7632 31.7141 23.7835 31.7082 23.8027C31.7021 23.8209 31.6826 23.8318 31.6632 23.8281L27.4171 22.9238L27.4181 22.9248C27.4098 22.9224 27.4011 22.9204 27.3927 22.918C27.1349 22.8331 26.9947 22.5565 27.0783 22.2998ZM17.6945 18.6289C16.5718 19.7019 15.5934 21.0306 14.8546 22.6582C14.7337 22.4356 14.6273 22.2032 14.5353 21.9648C15.2038 20.5648 16.129 19.3274 17.1984 18.2871C17.3655 18.3973 17.5311 18.5115 17.6945 18.6289ZM22.8019 18.2871C23.8713 19.3274 24.7965 20.5648 25.465 21.9648C25.373 22.2044 25.2666 22.4356 25.1457 22.6582C24.4069 21.0306 23.4284 19.7019 22.3058 18.6289C22.4692 18.5115 22.6349 18.3972 22.8019 18.2871ZM12.091 20.7559C12.3574 20.7147 12.6082 20.8964 12.6505 21.1641C12.6916 21.4304 12.5099 21.6813 12.2423 21.7236C12.2291 21.726 12.2158 21.7285 12.2013 21.7285L7.88394 21.9521C7.8647 21.9534 7.84673 21.9403 7.84293 21.9199C7.83929 21.8993 7.85091 21.8808 7.87027 21.876L12.0656 20.7607C12.074 20.7595 12.0825 20.7571 12.091 20.7559ZM27.9103 20.7559C27.9236 20.7583 27.9368 20.761 27.9513 20.7646L32.13 21.876C32.1493 21.8809 32.162 21.8994 32.1584 21.9199C32.1558 21.9401 32.1384 21.9531 32.1193 21.9521L27.7834 21.7266H27.7843C27.7759 21.7254 27.7674 21.7248 27.7589 21.7236C27.4914 21.6825 27.3085 21.4316 27.3507 21.1641C27.3919 20.8964 27.6427 20.7135 27.9103 20.7559ZM14.8634 17.0635C15.4688 17.3056 16.0717 17.6033 16.6613 17.9531C15.7542 18.8178 14.9404 19.8488 14.2707 21.0684C14.1895 20.6809 14.1476 20.2799 14.1476 19.8682C14.1476 18.8521 14.4069 17.8955 14.8634 17.0635ZM25.1369 17.0635C25.5921 17.8966 25.8527 18.8522 25.8527 19.8682C25.8527 20.2787 25.8098 20.6809 25.7287 21.0684C25.0589 19.8488 24.2464 18.8178 23.338 17.9531C23.9278 17.6044 24.5314 17.3069 25.1369 17.0635ZM27.9709 19.5117L32.2716 19.9609C32.2921 19.9622 32.3078 19.9795 32.3078 20C32.3078 20.0206 32.292 20.0379 32.2726 20.0391L27.9552 20.4893L27.9543 20.4902H27.9289C27.6588 20.4902 27.4396 20.2723 27.4396 20.001C27.4397 19.7298 27.6589 19.5107 27.9289 19.5107C27.9432 19.5108 27.9565 19.5117 27.9709 19.5117ZM12.0714 19.5098C12.3415 19.5098 12.5607 19.7299 12.5607 20C12.5607 20.2701 12.3415 20.4893 12.0714 20.4893C12.057 20.4892 12.0438 20.4883 12.0294 20.4883L7.72867 20.0391C7.70808 20.0379 7.69254 20.0206 7.69254 20C7.69254 19.9794 7.70831 19.9621 7.72769 19.9609L12.0451 19.5107L12.0461 19.5098H12.0714ZM20.4464 19.3809C20.2951 19.5165 20.1455 19.6574 20.0002 19.8027C19.8537 19.6587 19.7062 19.5165 19.5548 19.3809C19.7012 19.2418 19.849 19.1065 20.0002 18.9746C20.1515 19.1066 20.2999 19.2416 20.4464 19.3809ZM12.2169 18.2734H12.216C12.2243 18.2746 12.233 18.2752 12.2414 18.2764C12.5088 18.3176 12.6918 18.5684 12.6496 18.8359C12.6084 19.1035 12.3576 19.2864 12.09 19.2441C12.0768 19.2417 12.0634 19.2389 12.049 19.2354L7.87027 18.124C7.85091 18.1192 7.83734 18.1007 7.84097 18.0801C7.84352 18.0597 7.8618 18.0467 7.88101 18.0479L12.2169 18.2734ZM32.1164 18.0479C32.1356 18.0466 32.1536 18.0597 32.1574 18.0801C32.161 18.1006 32.1492 18.1191 32.13 18.124L27.9347 19.2393C27.9263 19.2417 27.9177 19.2429 27.9093 19.2441C27.6429 19.2853 27.3922 19.1036 27.3498 18.8359C27.3087 18.5696 27.4904 18.3187 27.758 18.2764C27.7712 18.274 27.7846 18.2715 27.799 18.2715L32.1164 18.0479ZM21.3869 18.6084C21.2259 18.7282 21.0676 18.8532 20.9103 18.9814L20.4621 18.5869C20.6191 18.4613 20.7789 18.3391 20.9396 18.2207C21.0909 18.3453 21.2405 18.4753 21.3869 18.6084ZM19.5382 18.585C19.3869 18.7121 19.2377 18.8448 19.09 18.9805C18.9338 18.8521 18.7735 18.7273 18.6125 18.6074L18.6115 18.6064C18.7592 18.4745 18.9084 18.3447 19.0597 18.2188C19.2207 18.3374 19.3809 18.4591 19.5382 18.585ZM18.5646 17.8711C18.4108 17.9934 18.2604 18.1192 18.1115 18.25C17.9408 18.135 17.769 18.0245 17.5959 17.918H17.5939C17.7392 17.7872 17.8871 17.6599 18.0373 17.5352C18.2141 17.6417 18.3902 17.7548 18.5646 17.8711ZM22.4054 17.918H22.4044C22.2313 18.0245 22.0595 18.135 21.8888 18.25C21.7399 18.1192 21.5895 17.9934 21.4357 17.8711C21.6101 17.7548 21.7862 17.6417 21.963 17.5352C22.1131 17.6598 22.2602 17.7873 22.4054 17.918ZM20.4904 17.8604C20.3257 17.9742 20.1612 18.0923 20.0002 18.2158C19.8392 18.0936 19.6755 17.9753 19.5109 17.8604C19.6718 17.7369 19.8356 17.6179 20.0002 17.5029C20.1649 17.618 20.3293 17.7368 20.4904 17.8604ZM31.6613 16.1719C31.6806 16.1672 31.7011 16.178 31.7072 16.1973C31.7143 16.2165 31.7046 16.2368 31.6867 16.2441L27.7189 18.0068V18.0078C27.7116 18.0102 27.703 18.0142 27.6945 18.0166C27.4366 18.1 27.1608 17.9578 27.0773 17.7012C26.9938 17.4433 27.1352 17.1676 27.3918 17.084C27.4038 17.0804 27.4173 17.0769 27.4318 17.0732L31.6613 16.1719ZM12.5832 17.0762L12.5812 17.0752C12.5896 17.0776 12.5983 17.0796 12.6066 17.082C12.8646 17.1656 13.0056 17.4434 12.922 17.7002C12.8385 17.9582 12.5606 18.0982 12.3039 18.0146C12.2919 18.011 12.2789 18.006 12.2658 18L8.31363 16.2441C8.29549 16.2369 8.28609 16.2166 8.29214 16.1973C8.2982 16.1779 8.31769 16.167 8.33707 16.1719L12.5832 17.0762ZM15.3605 16.3018C16.0738 16.5319 16.7928 16.8419 17.4953 17.2246C17.3439 17.3457 17.1947 17.4701 17.047 17.5996C16.4052 17.2448 15.7461 16.9458 15.0812 16.6963C15.1683 16.5608 15.2615 16.4288 15.3595 16.3018H15.3605ZM24.6388 16.3018C24.7369 16.4289 24.831 16.5607 24.9181 16.6963H24.9191C24.2542 16.9458 23.5952 17.246 22.9533 17.5996C22.8056 17.4701 22.6564 17.3457 22.505 17.2246C23.2073 16.842 23.9256 16.5319 24.6388 16.3018ZM18.9523 16.8418C19.1411 16.9495 19.3275 17.0621 19.5138 17.1807C19.3443 17.2933 19.1768 17.4092 19.0109 17.5303C18.8293 17.4153 18.6453 17.3065 18.4601 17.2012V17.2002C18.6224 17.0767 18.7864 16.9569 18.9523 16.8418ZM21.5402 17.2002V17.2012C21.3549 17.3065 21.1701 17.4152 20.9884 17.5303C20.8227 17.4093 20.6558 17.2932 20.4865 17.1807C20.6729 17.0621 20.8592 16.9495 21.048 16.8418C21.2139 16.9568 21.3779 17.0767 21.5402 17.2002ZM15.9845 15.6113C16.7911 15.8233 17.611 16.1392 18.4152 16.5498C18.2457 16.6636 18.0781 16.781 17.9123 16.9033C17.1688 16.5231 16.4061 16.2128 15.6408 15.9658C15.7507 15.8438 15.865 15.7249 15.9845 15.6113ZM24.0168 15.6113C24.1365 15.7238 24.2514 15.8424 24.3615 15.9658H24.3605C23.5952 16.2128 22.8325 16.5231 22.089 16.9033C21.9232 16.781 21.7556 16.6636 21.5861 16.5498C22.389 16.138 23.209 15.8221 24.0168 15.6113ZM9.08218 14.3887L13.133 15.9512H13.1339C13.1411 15.9547 13.1493 15.9584 13.1564 15.9619C13.3974 16.0842 13.4937 16.3801 13.3703 16.6211C13.2467 16.8621 12.9521 16.9575 12.7111 16.834C12.699 16.828 12.687 16.8207 12.675 16.8135L9.04898 14.458C9.03203 14.4471 9.02464 14.4254 9.03433 14.4072C9.04394 14.3892 9.06414 14.3817 9.08218 14.3887ZM30.966 14.4082C30.9757 14.4252 30.9693 14.4471 30.9523 14.458L27.3117 16.8232L27.2902 16.834C27.0492 16.9575 26.7545 16.8621 26.631 16.6211C26.5076 16.3801 26.6039 16.0854 26.8449 15.9619C26.8568 15.9559 26.8688 15.9501 26.882 15.9453L30.9162 14.3906C30.9343 14.3834 30.9563 14.3901 30.966 14.4082ZM20.0002 16.1777C20.1987 16.2903 20.3951 16.4105 20.59 16.5352C20.3915 16.6417 20.195 16.7547 20.0002 16.8721C19.8054 16.7547 19.6097 16.6416 19.4113 16.5352C19.6061 16.4106 19.8017 16.2915 20.0002 16.1777ZM16.9503 14.9268C16.9719 14.9316 16.9923 14.9374 17.0138 14.9434C17.8349 15.1577 18.6708 15.4802 19.4894 15.9004C19.2812 16.0142 19.0756 16.1331 18.8722 16.2578C18.0802 15.8727 17.2684 15.565 16.4582 15.3252C16.4509 15.3228 16.4063 15.3069 16.3556 15.29C16.5275 15.1533 16.708 15.0246 16.8957 14.9072C16.9126 14.9133 16.9311 14.9195 16.9503 14.9268ZM23.1115 14.9111C23.298 15.0286 23.4788 15.1571 23.6496 15.2939L23.6505 15.2949C23.629 15.3009 23.6087 15.3069 23.5919 15.3105C22.7648 15.5516 21.9359 15.8644 21.1281 16.2568C20.9247 16.1322 20.7191 16.012 20.5109 15.8994C21.35 15.4672 22.2072 15.1389 23.05 14.9258C23.0704 14.9222 23.091 14.9171 23.1115 14.9111ZM10.0949 12.752L13.8517 14.9277L13.8507 14.9287C13.8579 14.9335 13.8651 14.9386 13.8722 14.9434C14.0914 15.102 14.1391 15.4087 13.9806 15.6279C13.822 15.8471 13.5153 15.894 13.2961 15.7354C13.2852 15.7269 13.2737 15.7186 13.2628 15.709L10.05 12.8145C10.0357 12.8012 10.0322 12.7795 10.0441 12.7627C10.0562 12.7457 10.0779 12.7423 10.0949 12.752ZM29.9562 12.7627C29.9669 12.7784 29.9638 12.8002 29.9494 12.8135L26.7248 15.7188C26.7188 15.7235 26.7114 15.7296 26.7043 15.7344C26.4851 15.893 26.1784 15.8461 26.0197 15.627C25.8611 15.4078 25.9081 15.1011 26.1271 14.9424C26.1379 14.934 26.1503 14.9271 26.1623 14.9199L29.9035 12.7529C29.9204 12.742 29.9441 12.7457 29.9562 12.7627ZM20.0002 14.0156C20.9375 14.0156 21.8218 14.2368 22.6066 14.6279C22.5753 14.6376 22.5523 14.646 22.5451 14.6484C21.6901 14.8979 20.8336 15.2218 19.9992 15.6348C19.1818 15.2303 18.341 14.9101 17.5031 14.6631C17.4875 14.6583 17.4708 14.6532 17.4552 14.6484C17.4322 14.6424 17.4111 14.6362 17.3918 14.6289C18.1776 14.2378 19.0629 14.0157 20.0002 14.0156ZM28.7033 11.2969C28.7178 11.3114 28.7183 11.3351 28.7062 11.3496L25.9709 14.7207H25.9738L25.9552 14.7393C25.7639 14.9303 25.4541 14.9304 25.2628 14.7393C25.0715 14.5479 25.0715 14.2373 25.2628 14.0459C25.2725 14.0363 25.2823 14.0282 25.2931 14.0186L28.6515 11.2959C28.666 11.2827 28.6887 11.2826 28.7033 11.2969ZM11.3488 11.2949L14.7199 14.0293L14.7189 14.0273C14.7261 14.0333 14.7324 14.0389 14.7384 14.0449C14.9298 14.2363 14.9298 14.5469 14.7384 14.7383C14.5472 14.9293 14.2374 14.9291 14.0461 14.7383C14.0364 14.7286 14.0274 14.7179 14.0177 14.707L11.2951 11.3496C11.2818 11.3351 11.2816 11.3114 11.2961 11.2969C11.3106 11.2823 11.3343 11.2828 11.3488 11.2949ZM12.8136 10.0498L15.7199 13.2764C15.7247 13.2823 15.7308 13.2898 15.7355 13.2969C15.8938 13.5161 15.8462 13.8219 15.6271 13.9805C15.408 14.1391 15.1022 14.0921 14.9435 13.873C14.935 13.8621 14.9273 13.85 14.9201 13.8379L12.7531 10.0967C12.7425 10.0798 12.7462 10.057 12.7628 10.0449C12.7786 10.0328 12.8003 10.0354 12.8136 10.0498ZM27.2384 10.0449C27.2551 10.0571 27.2588 10.0788 27.2492 10.0957L25.0724 13.8516C25.0676 13.8587 25.0625 13.8659 25.0578 13.873C24.8991 14.0921 24.5933 14.1391 24.3742 13.9805C24.1551 13.8219 24.1074 13.5161 24.2658 13.2969C24.273 13.286 24.2815 13.2746 24.2912 13.2637L27.1857 10.0508C27.1978 10.0362 27.2215 10.0328 27.2384 10.0449ZM25.5919 9.03516C25.6101 9.04481 25.6176 9.06489 25.6105 9.08301L24.048 13.1328V13.1348C24.0445 13.1419 24.0408 13.1501 24.0373 13.1572C23.9149 13.3982 23.6191 13.4936 23.3781 13.3701C23.1374 13.2465 23.0419 12.9528 23.1652 12.7119C23.1712 12.6999 23.1785 12.6878 23.1857 12.6758L25.5412 9.04883C25.5521 9.03205 25.5739 9.02556 25.5919 9.03516ZM14.4572 9.04688L16.8224 12.6875L16.8214 12.6865C16.825 12.6936 16.8296 12.7007 16.8332 12.709C16.9567 12.95 16.8613 13.2446 16.6203 13.3682C16.3795 13.4915 16.0857 13.3959 15.9621 13.1553C15.956 13.1432 15.9505 13.1305 15.9445 13.1172L14.3898 9.08301C14.3826 9.06492 14.3894 9.04292 14.4074 9.0332C14.4255 9.02354 14.4463 9.03 14.4572 9.04688ZM16.1964 8.29199C16.2157 8.28475 16.237 8.29447 16.2443 8.3125L18.006 12.2803H18.007C18.0094 12.2875 18.0134 12.2962 18.0158 12.3047C18.0993 12.5626 17.9571 12.8393 17.7003 12.9229C17.4425 13.0061 17.1667 12.864 17.0832 12.6074C17.0795 12.5953 17.076 12.5819 17.0724 12.5674L16.1711 8.33789C16.1665 8.31866 16.1772 8.29801 16.1964 8.29199ZM23.8039 8.29199C23.8218 8.29811 23.8339 8.31773 23.8293 8.33691L22.924 12.583L22.925 12.582C22.9225 12.5905 22.9205 12.599 22.9181 12.6074C22.8346 12.8652 22.5575 13.006 22.3009 12.9229C22.043 12.8393 21.9019 12.5614 21.9855 12.3047C21.9891 12.2926 21.9941 12.2789 22.0002 12.2656L23.756 8.31445C23.7633 8.29629 23.7845 8.28594 23.8039 8.29199ZM18.0802 7.8418C18.1007 7.83839 18.1184 7.85086 18.1232 7.87012L19.2384 12.0645C19.2409 12.0729 19.2421 12.0823 19.2433 12.0908C19.2842 12.3571 19.1026 12.607 18.8351 12.6494C18.5689 12.6904 18.3181 12.5095 18.2755 12.2422C18.2731 12.2289 18.2716 12.2147 18.2716 12.2002L18.047 7.88281C18.0459 7.86351 18.0597 7.84542 18.0802 7.8418ZM21.9201 7.8418C21.9407 7.84422 21.9533 7.86246 21.9533 7.88184L21.7277 12.2178L21.7238 12.2422C21.6824 12.5096 21.4317 12.6918 21.1642 12.6494C20.8969 12.6081 20.714 12.3582 20.756 12.0908C20.7584 12.0775 20.7612 12.0634 20.7648 12.0488L21.8761 7.87109C21.881 7.85176 21.8995 7.83824 21.9201 7.8418ZM19.9992 7.69141C20.0197 7.69141 20.0357 7.70728 20.0382 7.72656L20.4884 12.0439V12.0713C20.4883 12.3412 20.2691 12.5605 19.9992 12.5605C19.7293 12.5604 19.5101 12.3411 19.5099 12.0713C19.5099 12.0568 19.5097 12.0429 19.5109 12.0283L19.9611 7.72754C19.9625 7.70726 19.9789 7.69152 19.9992 7.69141Z" fill="#FFED00"/>
</g>
<defs>
<clipPath id="clip0_892_4577">
<rect width="40" height="40" fill="white"/>
</clipPath>
</defs>
</svg>
