<svg width="40" height="40" viewBox="0 0 40 40" fill="none" xmlns="http://www.w3.org/2000/svg">
<g clip-path="url(#clip0_892_4577)">
<rect width="40" height="40" rx="20" fill="#009C4D"/>
<g clip-path="url(#clip1_892_4577)">
<path d="M31.0941 0H31.0127H9.31513H9.23507H-12.5439V20.1208V40H9.23507H9.31513H31.0127H31.0941H52.873V20.1208V0H31.0941Z" fill="#FF0000"/>
<path fill-rule="evenodd" clip-rule="evenodd" d="M26.5022 13.6617C24.8223 11.9818 22.5412 11.0374 20.1639 11.0374C16.5395 11.0374 13.2706 13.2207 11.8838 16.5696C10.4957 19.9186 11.2623 23.7736 13.827 26.3369C16.3902 28.9015 20.2453 29.6682 23.5942 28.28C26.9432 26.8932 29.1265 23.6257 29.1265 20C29.1265 17.6226 28.1821 15.3443 26.5022 13.6617ZM20.1639 27.9612C15.7674 27.9612 12.2027 24.3965 12.2027 20C12.2027 15.6035 15.7674 12.0374 20.1639 12.0374C24.5604 12.0374 28.1264 15.6035 28.1264 20C28.1264 24.3965 24.5617 27.9612 20.1639 27.9612ZM26.414 16.4271C25.6771 16.7229 24.943 17.0853 24.2266 17.51C25.3298 18.5616 26.3203 19.8154 27.1345 21.2999C27.2322 20.8304 27.2838 20.3406 27.2838 19.8412C27.2838 18.605 26.9676 17.4421 26.414 16.4285V16.4271ZM23.5725 17.9171C23.369 18.05 23.1682 18.1898 22.9687 18.3323C24.3338 19.639 25.5252 21.2551 26.4235 23.2336C26.57 22.9622 26.7003 22.6813 26.8129 22.3895C25.9987 20.6866 24.8738 19.1817 23.5725 17.9157V17.9171ZM23.7571 17.0798C24.5373 16.6497 25.3393 16.2847 26.148 15.9807C26.0422 15.8152 25.9282 15.6564 25.8088 15.5003C24.9403 15.7812 24.0665 16.1585 23.2129 16.6225C23.3961 16.7704 23.578 16.9224 23.7571 17.0798ZM21.7922 19.2618C23.2251 20.711 24.4478 22.5198 25.3148 24.7547C25.5292 24.5308 25.7274 24.2933 25.9105 24.0423C25.0977 22.0205 23.8493 20.2469 22.3648 18.7882C22.1722 18.9416 21.9808 19.099 21.7922 19.2618ZM22.7054 16.2331C23.6092 15.7704 24.5387 15.3931 25.4682 15.0919C25.3352 14.9426 25.1954 14.7974 25.0502 14.6618C24.0692 14.9182 23.0718 15.3036 22.0935 15.8029C22.2984 15.9413 22.5033 16.0838 22.7054 16.2331ZM21.5385 15.4474C22.5209 14.9684 23.5291 14.5898 24.5346 14.2967C24.555 14.2913 24.5807 14.2845 24.6065 14.2764C24.3975 14.1095 24.1777 13.9534 23.9511 13.8109C23.9267 13.8177 23.9023 13.8245 23.8765 13.8286C22.852 14.0878 21.8071 14.4867 20.7867 15.0132C21.0391 15.1516 21.2901 15.2968 21.5385 15.4474ZM20.6863 20.3053C21.9863 21.7314 23.0895 23.4778 23.8765 25.6014L23.9715 25.8552C24.2171 25.6991 24.4532 25.5282 24.6784 25.345C23.943 23.2037 22.719 21.323 21.2304 19.7679C21.0459 19.943 20.8641 20.1221 20.6877 20.3053H20.6863ZM17.127 13.5056C18.1461 13.8069 19.1692 14.1963 20.1639 14.6889C21.1789 14.1868 22.221 13.792 23.2604 13.488C23.2686 13.4853 23.2957 13.4758 23.3351 13.4636C22.3798 12.9873 21.3037 12.72 20.1639 12.72C19.024 12.72 17.9453 12.9873 16.99 13.4649C17.0131 13.4731 17.0388 13.4812 17.066 13.488C17.0863 13.4934 17.1053 13.5002 17.1257 13.5056H17.127ZM20.1639 20.8711C18.8802 22.3298 17.8286 24.0477 17.1732 25.9732L17.0823 26.2582C18.0145 26.706 19.0593 26.957 20.1639 26.957C21.2684 26.957 22.3146 26.706 23.2469 26.2568L23.1546 25.9732C22.4978 24.0477 21.4489 22.3298 20.1639 20.8711ZM23.0908 17.4679C22.9144 17.3078 22.7339 17.1531 22.5521 17.0038C22.3364 17.1341 22.1233 17.2698 21.9116 17.4109C22.0975 17.5602 22.2807 17.7135 22.4639 17.8723C22.6702 17.7325 22.8805 17.5968 23.0908 17.4679ZM21.4394 16.1571C21.2087 16.2887 20.9821 16.4244 20.7569 16.5696C20.9618 16.7053 21.1667 16.8478 21.3675 16.9943C21.5887 16.8546 21.8126 16.7216 22.0378 16.594C21.8397 16.4434 21.6402 16.2982 21.4394 16.1571ZM21.8519 18.3051C21.6742 18.1437 21.491 17.9863 21.3078 17.8329C21.1124 17.9768 20.917 18.126 20.7257 18.2794C20.9116 18.4341 21.092 18.5942 21.2711 18.7584C21.4638 18.6023 21.6565 18.4503 21.8519 18.3038V18.3051ZM20.8817 15.7839C20.6442 15.6333 20.4054 15.4881 20.1639 15.3497C19.9237 15.4868 19.6835 15.632 19.4474 15.7839C19.6889 15.9156 19.9278 16.0513 20.1639 16.1951C20.4013 16.0513 20.6402 15.9156 20.8817 15.7839ZM20.1639 16.9618C19.9644 17.1015 19.7649 17.2467 19.5682 17.396C19.769 17.5358 19.9685 17.6796 20.1639 17.8289C20.3593 17.6796 20.5588 17.5358 20.7596 17.396C20.5642 17.2467 20.3647 17.1015 20.1639 16.9618ZM19.6225 19.2469C19.807 19.4124 19.9875 19.5834 20.1639 19.7598C20.3416 19.5834 20.5221 19.4111 20.7067 19.2469C20.5289 19.0772 20.3471 18.9117 20.1639 18.7502C19.9807 18.9117 19.7989 19.0772 19.6225 19.2469ZM19.0987 19.7679C17.6101 21.323 16.3875 23.2037 15.6507 25.345C15.8759 25.5282 16.112 25.6991 16.3577 25.8552L16.4513 25.6014C17.2383 23.4778 18.3415 21.7314 19.6415 20.3053C19.4637 20.1221 19.2819 19.943 19.0987 19.7679ZM19.6035 18.2807C19.4121 18.126 19.2181 17.9781 19.0213 17.8343C18.8368 17.9876 18.655 18.1437 18.4772 18.3065C18.6726 18.4531 18.8666 18.605 19.0566 18.7611C19.2371 18.5955 19.4176 18.4368 19.6035 18.2821V18.2807ZM19.5723 16.5683C19.347 16.4244 19.119 16.2874 18.8897 16.1557C18.6889 16.2969 18.4894 16.4421 18.2913 16.5927C18.5166 16.7202 18.7404 16.8532 18.9616 16.993C19.1625 16.8464 19.3674 16.704 19.5723 16.5683ZM18.7907 15.4474C19.039 15.2968 19.2887 15.1516 19.5424 15.0132C18.5478 14.5003 17.5314 14.1081 16.5313 13.8489C16.5056 13.8422 16.4798 13.8354 16.454 13.8286C16.4323 13.8204 16.4079 13.8137 16.3889 13.8055C16.1609 13.948 15.9411 14.104 15.7307 14.2723C15.7932 14.2927 15.8474 14.3117 15.8556 14.3144C16.8407 14.6048 17.8286 14.9793 18.792 15.4488L18.7907 15.4474ZM17.9643 18.7882C16.4798 20.2469 15.2314 22.0191 14.4186 24.0423C14.6018 24.2933 14.8012 24.5308 15.0143 24.7547C15.8814 22.5198 17.104 20.711 18.5369 19.2618C18.3496 19.1003 18.1583 18.9416 17.9643 18.7882ZM17.2383 17.4679C17.4486 17.5968 17.659 17.7325 17.8652 17.8723C18.047 17.7135 18.2316 17.5602 18.4175 17.4109C18.2058 17.2698 17.9928 17.1341 17.777 17.0038C17.5952 17.1545 17.4147 17.3091 17.2383 17.4679ZM18.2357 15.8029C17.2587 15.3022 16.26 14.9182 15.2789 14.6618C15.1323 14.7988 14.9939 14.9426 14.8596 15.0919C15.7904 15.3931 16.72 15.769 17.6237 16.2331C17.8259 16.0838 18.0308 15.9413 18.2357 15.8029ZM17.3591 18.3323C17.1596 18.1898 16.9588 18.05 16.7552 17.9171C15.4539 19.1817 14.3304 20.6866 13.5149 22.3909C13.6261 22.6813 13.7577 22.9635 13.9043 23.2349C14.8026 21.2551 15.9926 19.639 17.3591 18.3336V18.3323ZM17.1162 16.6225C16.2613 16.1585 15.3874 15.7812 14.5203 15.5003C14.4009 15.655 14.2883 15.8152 14.1811 15.9807C14.9899 16.2847 15.7918 16.6497 16.5721 17.0798C16.7512 16.9238 16.933 16.7704 17.1162 16.6225ZM16.1025 17.5086C15.3861 17.0839 14.652 16.7216 13.9152 16.4258C13.3615 17.4381 13.0454 18.6023 13.0454 19.8385C13.0454 20.3392 13.0969 20.8263 13.1946 21.2972C14.0088 19.8141 14.998 18.5603 16.1025 17.5073V17.5086Z" fill="#FFEC00"/>
<path fill-rule="evenodd" clip-rule="evenodd" d="M20.7596 10.3209L20.2114 5.06819C20.21 5.04376 20.191 5.02612 20.1652 5.02612C20.1395 5.02612 20.1205 5.04512 20.1191 5.06955L19.5723 10.3019C19.5695 10.3196 19.5695 10.3358 19.5695 10.3535C19.5695 10.6819 19.8369 10.9492 20.1652 10.9492C20.4936 10.9492 20.7623 10.6819 20.7623 10.3535C20.7623 10.3426 20.7609 10.3318 20.7609 10.3223L20.7596 10.3209Z" fill="#FFEC00"/>
<path fill-rule="evenodd" clip-rule="evenodd" d="M19.2439 10.3792C19.2439 10.3684 19.2398 10.3575 19.2384 10.348L17.8815 5.24455C17.8747 5.22012 17.853 5.20655 17.8286 5.20927C17.8042 5.21334 17.7865 5.23505 17.7892 5.26083L18.0606 10.5136C18.0633 10.5312 18.0647 10.5475 18.0674 10.5638C18.119 10.8894 18.4229 11.1106 18.7486 11.0604C19.0743 11.0088 19.2954 10.7035 19.2439 10.3792Z" fill="#FFEC00"/>
<path fill-rule="evenodd" clip-rule="evenodd" d="M17.7499 10.6384C17.7472 10.6289 17.7431 10.6194 17.7404 10.6086L15.5964 5.78194C15.5869 5.76023 15.5611 5.74937 15.5381 5.75616C15.515 5.7643 15.5014 5.78873 15.5069 5.81179L16.6019 10.9573C16.606 10.975 16.61 10.9913 16.6155 11.0075C16.7172 11.3196 17.0524 11.492 17.3672 11.3902C17.6793 11.2884 17.8503 10.9519 17.7499 10.6384Z" fill="#FFEC00"/>
<path fill-rule="evenodd" clip-rule="evenodd" d="M16.3142 11.1323C16.3088 11.1228 16.3047 11.1133 16.2993 11.1052L13.4239 6.67477C13.4104 6.65577 13.3832 6.64763 13.3615 6.65849C13.3398 6.6707 13.3303 6.69648 13.3398 6.71819L15.2314 11.6263C15.2395 11.6425 15.245 11.6575 15.2531 11.6724C15.4024 11.9655 15.7606 12.0822 16.0551 11.9329C16.3482 11.7837 16.4649 11.4241 16.3142 11.131V11.1323Z" fill="#FFEC00"/>
<path fill-rule="evenodd" clip-rule="evenodd" d="M14.9763 11.8448C14.9695 11.8353 14.9627 11.8271 14.9559 11.819L11.4225 7.8947C11.4075 7.87706 11.3804 7.87435 11.36 7.88792C11.3397 7.90148 11.3356 7.92998 11.3478 7.95033L13.9844 12.5015C13.9939 12.5165 14.0034 12.5314 14.0129 12.5436C14.2069 12.8109 14.5801 12.8679 14.8447 12.6752C15.112 12.4812 15.1703 12.108 14.9763 11.8421V11.8448Z" fill="#FFEC00"/>
<path fill-rule="evenodd" clip-rule="evenodd" d="M13.7645 12.7566C13.7578 12.7499 13.7496 12.7417 13.7428 12.7349L9.63943 9.40907C9.62179 9.39414 9.59466 9.3955 9.57702 9.41314C9.55802 9.43078 9.55802 9.45792 9.5743 9.47691L12.888 13.5627C12.8988 13.5749 12.9097 13.5885 12.9232 13.5993C13.1553 13.8313 13.5325 13.8313 13.7659 13.5993C13.9993 13.3673 13.9979 12.99 13.7659 12.7566H13.7645Z" fill="#FFEC00"/>
<path fill-rule="evenodd" clip-rule="evenodd" d="M12.7102 13.8476C12.702 13.8408 12.6925 13.8354 12.6844 13.8299L8.11558 11.1825C8.09522 11.1703 8.06808 11.1758 8.05451 11.1961C8.03959 11.2151 8.0423 11.2436 8.0613 11.2599L11.9707 14.7812C11.9829 14.7934 11.9964 14.8029 12.01 14.8124C12.276 15.0064 12.6491 14.9481 12.8432 14.6807C13.0372 14.4148 12.9762 14.043 12.7115 13.8489L12.7102 13.8476Z" fill="#FFEC00"/>
<path fill-rule="evenodd" clip-rule="evenodd" d="M11.839 15.0879C11.8295 15.0838 11.8187 15.0797 11.8092 15.0743L6.88076 13.1732C6.85905 13.1651 6.83327 13.1732 6.82241 13.1949C6.81156 13.2166 6.8197 13.2438 6.84141 13.2573L11.2528 16.1232C11.2678 16.1327 11.2827 16.1408 11.2963 16.1476C11.5894 16.2969 11.949 16.1815 12.0982 15.8884C12.2475 15.5953 12.1308 15.2358 11.839 15.0865V15.0879Z" fill="#FFEC00"/>
<path fill-rule="evenodd" clip-rule="evenodd" d="M11.1714 16.4516C11.1619 16.4489 11.1524 16.4448 11.1416 16.4434L5.97569 15.3416C5.95397 15.3375 5.92819 15.3497 5.92141 15.3728C5.91327 15.3972 5.92548 15.4217 5.94855 15.4312L10.7548 17.5656C10.7725 17.5738 10.7861 17.5792 10.8023 17.5846C11.1144 17.685 11.451 17.5141 11.5541 17.202C11.6559 16.8899 11.4849 16.5533 11.1701 16.4502L11.1714 16.4516Z" fill="#FFEC00"/>
<path fill-rule="evenodd" clip-rule="evenodd" d="M10.7277 17.9022C10.7168 17.8994 10.706 17.8994 10.6965 17.8981L5.42205 17.624C5.39898 17.6226 5.37727 17.6389 5.3732 17.6647C5.36913 17.6891 5.38541 17.7122 5.40984 17.7176L10.4929 19.0705C10.5106 19.0746 10.5255 19.0786 10.5418 19.08C10.8661 19.1315 11.1728 18.909 11.223 18.5833C11.2745 18.259 11.052 17.9537 10.7277 17.9022Z" fill="#FFEC00"/>
<path fill-rule="evenodd" clip-rule="evenodd" d="M10.5187 19.403C10.5079 19.403 10.497 19.4043 10.4875 19.4043L5.23478 19.9525C5.21172 19.9539 5.19272 19.9742 5.19272 19.9987C5.19272 20.0231 5.21171 20.0434 5.23614 20.0461L10.4672 20.593C10.4848 20.5943 10.5011 20.5957 10.5187 20.5957C10.8471 20.5957 11.1144 20.3284 11.1144 20C11.1144 19.6716 10.8471 19.403 10.5187 19.403Z" fill="#FFEC00"/>
<path fill-rule="evenodd" clip-rule="evenodd" d="M11.2243 21.4153C11.1741 21.091 10.8688 20.8685 10.5432 20.92C10.5337 20.9214 10.5228 20.9241 10.5119 20.9255L5.40848 22.2824C5.38405 22.2892 5.36912 22.3109 5.37319 22.3353C5.37727 22.3597 5.39898 22.376 5.42476 22.3733L10.6775 22.1019C10.6951 22.0992 10.7101 22.0979 10.7277 22.0951C11.052 22.0449 11.2745 21.7396 11.223 21.414L11.2243 21.4153Z" fill="#FFEC00"/>
<path fill-rule="evenodd" clip-rule="evenodd" d="M11.5554 22.7966C11.4537 22.4845 11.1171 22.3122 10.8037 22.414C10.7942 22.4167 10.7833 22.4208 10.7738 22.4235L5.94719 24.5674C5.92548 24.5769 5.91463 24.6027 5.92141 24.6258C5.9282 24.6489 5.95398 24.6624 5.97705 24.657L11.1226 23.5606C11.1402 23.5565 11.1565 23.5524 11.1714 23.547C11.4862 23.4452 11.6572 23.1087 11.5554 22.7953V22.7966Z" fill="#FFEC00"/>
<path fill-rule="evenodd" clip-rule="evenodd" d="M12.0996 24.1102C11.9503 23.8171 11.5907 23.7004 11.2976 23.8496C11.2881 23.8551 11.2786 23.8591 11.2705 23.8646L6.84141 26.7413C6.82241 26.7535 6.81427 26.7793 6.82513 26.801C6.83734 26.8227 6.86312 26.8322 6.88619 26.8227L11.7943 24.9311C11.8105 24.923 11.8255 24.9175 11.8418 24.9094C12.1349 24.7601 12.2502 24.4019 12.1009 24.1088L12.0996 24.1102Z" fill="#FFEC00"/>
<path fill-rule="evenodd" clip-rule="evenodd" d="M12.8418 25.3206C12.6478 25.0546 12.2746 24.9949 12.0087 25.1889C11.9992 25.1957 11.991 25.2025 11.9829 25.2093L8.05859 28.7428C8.04095 28.7577 8.03824 28.7848 8.05181 28.8052C8.06538 28.8255 8.09388 28.8296 8.11423 28.8174L12.6654 26.1809C12.6803 26.1714 12.6953 26.1619 12.7075 26.1524C12.9734 25.9583 13.0332 25.5852 12.8391 25.3206H12.8418Z" fill="#FFEC00"/>
<path fill-rule="evenodd" clip-rule="evenodd" d="M13.7645 26.3993C13.5325 26.1673 13.1553 26.1673 12.9219 26.3993C12.9137 26.4075 12.907 26.4142 12.9002 26.4224L9.5743 30.5244C9.55937 30.5421 9.55937 30.5692 9.57837 30.5882C9.59601 30.6058 9.62315 30.6058 9.64215 30.5896L13.7279 27.2773C13.7415 27.265 13.7537 27.2542 13.7659 27.242C13.9979 27.0099 13.9979 26.6327 13.7659 26.3993H13.7645Z" fill="#FFEC00"/>
<path fill-rule="evenodd" clip-rule="evenodd" d="M14.8447 27.3221C14.5787 27.1294 14.2069 27.1877 14.0129 27.4537C14.0061 27.4618 14.0007 27.4713 13.9952 27.4795L11.3478 32.0483C11.3356 32.0687 11.341 32.0958 11.3614 32.1107C11.3818 32.1243 11.4089 32.1202 11.4252 32.1026L14.9464 28.1946C14.9573 28.181 14.9682 28.1674 14.9777 28.1539C15.1717 27.8879 15.1133 27.5148 14.846 27.3207L14.8447 27.3221Z" fill="#FFEC00"/>
<path fill-rule="evenodd" clip-rule="evenodd" d="M16.0551 28.0656C15.7606 27.9164 15.4024 28.0331 15.2531 28.3262C15.249 28.3343 15.2436 28.3452 15.2395 28.3533L13.3385 33.2817C13.3303 33.3034 13.3385 33.3292 13.3602 33.3401C13.3819 33.3523 13.409 33.3428 13.4226 33.3211L16.2871 28.9097C16.2966 28.8961 16.3047 28.8798 16.3129 28.8662C16.4621 28.5731 16.3454 28.2135 16.0537 28.0643L16.0551 28.0656Z" fill="#FFEC00"/>
<path fill-rule="evenodd" clip-rule="evenodd" d="M17.3672 28.6098C17.0524 28.508 16.7172 28.679 16.6155 28.9924C16.6128 29.0019 16.6087 29.0128 16.6073 29.0223L15.5055 34.1882C15.5001 34.2099 15.5136 34.2357 15.5367 34.2424C15.5598 34.2506 15.5856 34.2384 15.5951 34.2153L17.7309 29.409C17.7377 29.3914 17.7445 29.3778 17.7485 29.3615C17.8503 29.0494 17.6793 28.7129 17.3659 28.6098H17.3672Z" fill="#FFEC00"/>
<path fill-rule="evenodd" clip-rule="evenodd" d="M18.7486 28.9409C18.4243 28.8893 18.119 29.1119 18.0674 29.4362C18.0647 29.447 18.0647 29.4579 18.0633 29.4674L17.7906 34.7418C17.7892 34.7663 17.8055 34.7866 17.8299 34.7907C17.8544 34.7934 17.8774 34.7785 17.8829 34.754L19.2357 29.6696C19.2398 29.6519 19.2439 29.637 19.2452 29.6207C19.2968 29.2964 19.0756 28.9911 18.7499 28.9395L18.7486 28.9409Z" fill="#FFEC00"/>
<path fill-rule="evenodd" clip-rule="evenodd" d="M20.1639 29.0495C19.8355 29.0495 19.5682 29.3168 19.5682 29.6452C19.5682 29.656 19.5682 29.6669 19.5682 29.6764L20.1164 34.9291C20.1191 34.9522 20.1381 34.9712 20.1625 34.9712C20.187 34.9712 20.2087 34.9508 20.2087 34.9264L20.7555 29.6954C20.7569 29.6777 20.7582 29.6614 20.7582 29.6438C20.7582 29.3154 20.4909 29.0481 20.1612 29.0481L20.1639 29.0495Z" fill="#FFEC00"/>
<path fill-rule="evenodd" clip-rule="evenodd" d="M22.2672 29.4864C22.2672 29.4688 22.2644 29.4525 22.2617 29.4348C22.2102 29.1105 21.9062 28.888 21.5805 28.9396C21.2562 28.9911 21.0337 29.2951 21.0853 29.6207C21.0853 29.6316 21.088 29.6411 21.0907 29.6519L22.4476 34.7554C22.4531 34.7798 22.4761 34.7934 22.4992 34.7907C22.525 34.7866 22.5413 34.7649 22.5399 34.7391L22.2672 29.4864Z" fill="#FFEC00"/>
<path fill-rule="evenodd" clip-rule="evenodd" d="M24.8223 34.1868L23.7272 29.0413C23.7231 29.0236 23.7191 29.0074 23.7136 28.9924C23.6119 28.679 23.2767 28.508 22.9619 28.6098C22.6498 28.7115 22.4788 29.0481 22.5792 29.3615C22.5833 29.3724 22.586 29.3819 22.5901 29.3914L24.7341 34.218C24.7436 34.2397 24.768 34.2519 24.7924 34.2438C24.8155 34.237 24.8291 34.2112 24.8236 34.1882L24.8223 34.1868Z" fill="#FFEC00"/>
<path fill-rule="evenodd" clip-rule="evenodd" d="M26.9893 33.279L25.0977 28.371C25.0896 28.3547 25.0828 28.3398 25.076 28.3248C24.9268 28.0304 24.5672 27.915 24.2741 28.0643C23.981 28.2136 23.8643 28.5731 24.0149 28.8662C24.019 28.8757 24.0244 28.8852 24.0298 28.8934L26.9065 33.3225C26.9201 33.3428 26.9473 33.3496 26.969 33.3401C26.9907 33.3279 27.0002 33.3021 26.9907 33.279H26.9893Z" fill="#FFEC00"/>
<path fill-rule="evenodd" clip-rule="evenodd" d="M28.9813 32.0483L26.3448 27.4958C26.3366 27.4808 26.3258 27.4659 26.3176 27.4537C26.1236 27.1877 25.7504 27.1294 25.4858 27.3221C25.2185 27.5161 25.1602 27.8893 25.3542 28.1552C25.361 28.1647 25.3678 28.1729 25.3746 28.181L28.908 32.1053C28.923 32.1229 28.9501 32.1256 28.9705 32.1134C28.9908 32.0985 28.9962 32.0714 28.984 32.0497L28.9813 32.0483Z" fill="#FFEC00"/>
<path fill-rule="evenodd" clip-rule="evenodd" d="M30.7535 30.5231L27.4398 26.4373C27.429 26.4237 27.4181 26.4115 27.4059 26.3993C27.1725 26.1673 26.7953 26.1673 26.5632 26.3993C26.3312 26.6313 26.3312 27.0086 26.5632 27.242C26.57 27.2501 26.5782 27.2569 26.585 27.2637L30.6884 30.5896C30.706 30.6045 30.7331 30.6045 30.7508 30.5868C30.7698 30.5678 30.7698 30.5407 30.7535 30.5217V30.5231Z" fill="#FFEC00"/>
<path fill-rule="evenodd" clip-rule="evenodd" d="M32.2678 28.7414L28.3585 25.2202C28.3463 25.2079 28.3327 25.1984 28.3191 25.1876C28.0532 24.9935 27.68 25.0532 27.486 25.3192C27.2919 25.5852 27.3503 25.957 27.6176 26.151C27.6257 26.1578 27.6352 26.1632 27.6434 26.17L32.2122 28.8174C32.2325 28.8296 32.2597 28.8242 32.2733 28.8038C32.2882 28.7835 32.2841 28.7563 32.2665 28.7401L32.2678 28.7414Z" fill="#FFEC00"/>
<path fill-rule="evenodd" clip-rule="evenodd" d="M33.4864 26.7399L29.0749 23.8741C29.06 23.8646 29.0451 23.8564 29.0315 23.8483C28.7384 23.699 28.3788 23.8157 28.2296 24.1088C28.0803 24.4019 28.197 24.7602 28.4887 24.9094C28.4982 24.9148 28.5091 24.9189 28.5186 24.923L33.447 26.8241C33.4687 26.8336 33.4945 26.8241 33.5054 26.8024C33.5176 26.7806 33.5081 26.7535 33.4877 26.7399H33.4864Z" fill="#FFEC00"/>
<path fill-rule="evenodd" clip-rule="evenodd" d="M34.3792 24.5688L29.5716 22.433C29.5567 22.4262 29.5404 22.4194 29.5241 22.4154C29.212 22.3136 28.8755 22.4846 28.7737 22.798C28.6706 23.1128 28.8429 23.448 29.1564 23.5498C29.1659 23.5525 29.1754 23.5566 29.1862 23.5593L34.3521 24.6598C34.3738 24.6652 34.3996 24.6516 34.4064 24.6286C34.4145 24.6055 34.4023 24.5797 34.3792 24.5702V24.5688Z" fill="#FFEC00"/>
<path fill-rule="evenodd" clip-rule="evenodd" d="M34.9193 22.2824L29.8362 20.9295C29.8186 20.9255 29.8036 20.9214 29.7873 20.92C29.4617 20.8685 29.1564 21.091 29.1062 21.4153C29.0546 21.7396 29.2758 22.0463 29.6014 22.0965C29.6123 22.0992 29.6232 22.1006 29.6326 22.1006L34.9071 22.3747C34.9302 22.3747 34.9519 22.3584 34.9559 22.3353C34.96 22.3095 34.9437 22.2878 34.9193 22.2824Z" fill="#FFEC00"/>
<path fill-rule="evenodd" clip-rule="evenodd" d="M35.093 19.9539L29.862 19.407C29.8443 19.4057 29.828 19.4043 29.8104 19.4043C29.482 19.4043 29.2147 19.6716 29.2147 20.0014C29.2147 20.3311 29.482 20.597 29.8104 20.597C29.8213 20.597 29.8321 20.597 29.8416 20.597L35.0957 20.0488C35.1188 20.0461 35.1378 20.0271 35.1378 20.0027C35.1378 19.9783 35.1188 19.9566 35.0943 19.9566L35.093 19.9539Z" fill="#FFEC00"/>
<path fill-rule="evenodd" clip-rule="evenodd" d="M34.9044 17.6253L29.6516 17.8981C29.634 17.8981 29.6191 17.9008 29.6014 17.9035C29.2758 17.9551 29.0546 18.259 29.1062 18.5847C29.1564 18.909 29.4617 19.1315 29.7873 19.0813C29.7968 19.08 29.8077 19.0786 29.8185 19.0745L34.922 17.7176C34.9464 17.7122 34.9614 17.6905 34.9573 17.666C34.9532 17.6402 34.9315 17.624 34.9057 17.6253H34.9044Z" fill="#FFEC00"/>
<path fill-rule="evenodd" clip-rule="evenodd" d="M34.4064 15.3728C34.3982 15.3497 34.3738 15.3362 34.3507 15.3416L29.2052 16.438C29.1876 16.4421 29.1713 16.4461 29.1564 16.4516C28.8415 16.5533 28.6706 16.8899 28.7737 17.2033C28.8755 17.5154 29.212 17.6864 29.5241 17.586C29.5336 17.5819 29.5444 17.5792 29.5539 17.5751L34.3806 15.4311C34.4023 15.4216 34.4132 15.3972 34.4064 15.3728Z" fill="#FFEC00"/>
<path fill-rule="evenodd" clip-rule="evenodd" d="M33.504 13.1976C33.4932 13.1759 33.466 13.1664 33.4443 13.1759L28.5362 15.0675C28.52 15.0743 28.505 15.0811 28.4887 15.0879C28.1956 15.2371 28.0803 15.5967 28.2296 15.8898C28.3788 16.1829 28.7384 16.2996 29.0315 16.149C29.041 16.1449 29.0505 16.1395 29.0587 16.1341L33.4877 13.2573C33.5067 13.2451 33.5149 13.218 33.5027 13.1963L33.504 13.1976Z" fill="#FFEC00"/>
<path fill-rule="evenodd" clip-rule="evenodd" d="M32.2746 11.1948C32.261 11.1744 32.2325 11.169 32.2122 11.1826L27.661 13.8191C27.6461 13.8273 27.6312 13.8381 27.6189 13.8476C27.3516 14.0417 27.2933 14.4135 27.4873 14.6794C27.6814 14.9467 28.0545 15.0051 28.3205 14.811C28.33 14.8043 28.3381 14.7975 28.3463 14.792L32.2705 11.2572C32.2882 11.2423 32.2909 11.2151 32.2773 11.1948H32.2746Z" fill="#FFEC00"/>
<path fill-rule="evenodd" clip-rule="evenodd" d="M30.7508 9.41311C30.7331 9.39411 30.706 9.39411 30.687 9.41039L26.6026 12.724C26.589 12.7349 26.5768 12.7458 26.5646 12.758C26.3326 12.9914 26.3326 13.3686 26.5646 13.6006C26.7966 13.8327 27.1739 13.8327 27.4073 13.6006C27.4154 13.5925 27.4222 13.5857 27.429 13.5789L30.7548 9.47688C30.7698 9.45788 30.7684 9.43075 30.7508 9.41446V9.41311Z" fill="#FFEC00"/>
<path fill-rule="evenodd" clip-rule="evenodd" d="M28.9691 7.88925C28.9501 7.87432 28.9216 7.87839 28.9067 7.89739L25.3854 11.8054C25.3746 11.819 25.3637 11.8312 25.3542 11.8447C25.1602 12.1107 25.2185 12.4839 25.4858 12.6779C25.7518 12.8706 26.1236 12.8136 26.3176 12.5463C26.3244 12.5381 26.3298 12.5286 26.3353 12.5205L28.984 7.95167C28.9962 7.93131 28.9908 7.90417 28.9705 7.8906L28.9691 7.88925Z" fill="#FFEC00"/>
<path fill-rule="evenodd" clip-rule="evenodd" d="M26.9676 6.65854C26.9459 6.64768 26.9188 6.65582 26.9052 6.67753L24.0393 11.089C24.0312 11.1039 24.0217 11.1188 24.0149 11.1324C23.8656 11.4255 23.981 11.7851 24.2741 11.9343C24.5672 12.0836 24.9268 11.9669 25.076 11.6738C25.0801 11.6643 25.0855 11.6548 25.0896 11.6453L26.9907 6.71824C26.9988 6.69517 26.9907 6.66939 26.969 6.65854H26.9676Z" fill="#FFEC00"/>
<path fill-rule="evenodd" clip-rule="evenodd" d="M24.7911 5.75749C24.7666 5.75071 24.7422 5.76156 24.7327 5.78463L22.5969 10.5923C22.5901 10.6072 22.5847 10.6235 22.5792 10.6398C22.4788 10.9519 22.6498 11.2898 22.9619 11.3915C23.2767 11.4933 23.6119 11.3223 23.7136 11.0089C23.7164 10.998 23.7204 10.9885 23.7218 10.9777L24.8236 5.81313C24.8277 5.79006 24.8155 5.76563 24.7924 5.75885L24.7911 5.75749Z" fill="#FFEC00"/>
<path fill-rule="evenodd" clip-rule="evenodd" d="M22.4992 5.2093C22.4748 5.20523 22.4517 5.22152 22.4463 5.24594L21.0948 10.3291C21.0907 10.3467 21.0866 10.3616 21.0839 10.3793C21.0323 10.7036 21.2549 11.0089 21.5805 11.0604C21.9049 11.112 22.2102 10.8895 22.2617 10.5638C22.2644 10.5529 22.2644 10.5421 22.2658 10.5326L22.5385 5.25815C22.5399 5.23508 22.5236 5.21337 22.4978 5.2093H22.4992Z" fill="#FFEC00"/>
</g>
</g>
<defs>
<clipPath id="clip0_892_4577">
<rect width="40" height="40" rx="20" fill="white"/>
</clipPath>
<clipPath id="clip1_892_4577">
<rect width="53.3333" height="40" fill="white" transform="translate(-6.5)"/>
</clipPath>
</defs>
</svg>
