<svg width="40" height="40" viewBox="0 0 40 40" fill="none" xmlns="http://www.w3.org/2000/svg">
<g clip-path="url(#clip0_1695_7194)">
<rect width="40" height="40" fill="#E3E5E8"/>
<circle cx="20" cy="20" r="20" fill="#D8D8D8"/>
<mask id="mask0_1695_7194" style="mask-type:alpha" maskUnits="userSpaceOnUse" x="0" y="0" width="40" height="40">
<circle cx="20" cy="20" r="20" fill="white"/>
</mask>
<g mask="url(#mask0_1695_7194)">
<path d="M31.25 0H8.75C3.9175 0 0 3.9175 0 8.75V31.25C0 36.0825 3.9175 40 8.75 40H31.25C36.0825 40 40 36.0825 40 31.25V8.75C40 3.9175 36.0825 0 31.25 0Z" fill="#00AFCA"/>
<path fill-rule="evenodd" clip-rule="evenodd" d="M4.26895 37.3235C4.17585 37.0444 3.81844 36.3026 3.79599 36.256L3.7952 36.2544C3.69457 36.0283 3.6416 35.7783 3.6416 35.5311C3.6416 35.1854 3.84215 34.8828 4.12941 34.7951C4.36301 34.7228 4.6034 34.7618 4.78988 34.8997C4.9759 35.0371 5.08262 35.2487 5.08262 35.4795C5.08262 35.7685 4.8973 35.8641 4.81762 35.8918C4.69426 35.9349 4.57629 35.9101 4.53824 35.8618C4.50613 35.821 4.50941 35.7093 4.62457 35.5283C4.6959 35.4167 4.66324 35.2679 4.55137 35.1967C4.43926 35.1263 4.29129 35.1592 4.21973 35.2703C3.91293 35.7512 4.07668 36.0523 4.16129 36.1597C4.33199 36.375 4.65027 36.449 4.95723 36.3491C4.85637 36.7769 4.76348 37.1813 5.15285 37.5707C5.19973 37.6176 5.26121 37.641 5.3227 37.641C5.3841 37.641 5.44559 37.6176 5.49254 37.5707C5.58637 37.4769 5.58637 37.3249 5.49254 37.2311C5.3002 37.0388 5.32527 36.8807 5.4266 36.452C5.48738 36.1949 5.56285 35.8746 5.56285 35.4796C5.56285 35.1031 5.38246 34.7447 5.08098 34.5188C5.38246 34.293 5.56285 33.9346 5.56285 33.5581C5.56285 33.1631 5.4873 32.8428 5.4266 32.5857C5.32527 32.157 5.3002 31.9989 5.49254 31.8066C5.58637 31.7128 5.58637 31.5608 5.49254 31.467C5.39871 31.3731 5.24676 31.3731 5.15293 31.467C4.76348 31.8564 4.85637 32.2607 4.9573 32.6886C4.65035 32.5883 4.33207 32.6622 4.16137 32.878C4.07668 32.9854 3.91301 33.2866 4.2198 33.7674C4.29113 33.879 4.43863 33.9118 4.55145 33.841C4.66332 33.7697 4.6959 33.621 4.62465 33.5094C4.50949 33.3283 4.50621 33.2167 4.53832 33.1759C4.57629 33.1276 4.69426 33.1027 4.8177 33.1459C4.89746 33.1735 5.0827 33.2692 5.0827 33.5582C5.0827 33.789 4.97598 34.0006 4.78996 34.138C4.60348 34.2759 4.36215 34.3153 4.12949 34.2426C3.84215 34.1549 3.64168 33.8523 3.64168 33.5066C3.64168 33.2594 3.69465 33.0093 3.79527 32.7832L5.36809 29.2445C5.4973 28.9536 5.56301 28.6446 5.56301 28.326C5.56301 27.9163 5.37668 27.5421 5.08348 27.3138C5.37668 27.0854 5.56301 26.7112 5.56301 26.3015C5.56301 25.983 5.4973 25.6738 5.36809 25.3831L3.79527 21.8443C3.69465 21.6182 3.64168 21.3682 3.64168 21.121C3.64168 20.7753 3.84223 20.4728 4.12949 20.385C4.36309 20.3128 4.60348 20.3517 4.78996 20.4896C4.97598 20.6271 5.0827 20.8386 5.0827 21.0694C5.0827 21.3583 4.89738 21.454 4.8177 21.4817C4.69434 21.5253 4.57637 21.5 4.53832 21.4517C4.50621 21.411 4.50949 21.2993 4.62465 21.1182C4.69598 21.0066 4.66332 20.8579 4.55145 20.7866C4.43934 20.7162 4.29137 20.7491 4.2198 20.8603C3.91301 21.341 4.07676 21.6422 4.16137 21.7496C4.33207 21.9649 4.65035 22.0389 4.9573 21.939C4.85645 22.3668 4.76355 22.7711 5.15293 23.1606C5.1998 23.2075 5.26129 23.231 5.32277 23.231C5.38418 23.231 5.44566 23.2075 5.49262 23.1606C5.58645 23.0667 5.58645 22.9148 5.49262 22.821C5.30027 22.6286 5.32535 22.4706 5.42668 22.0418C5.48746 21.7848 5.56293 21.4644 5.56293 21.0694C5.56293 20.8065 5.47051 20.5553 5.31504 20.3488H5.32277C5.45551 20.3488 5.56293 20.2414 5.56293 20.1087C5.56293 19.976 5.45551 19.8685 5.32277 19.8685H5.31504C5.47051 19.6621 5.56293 19.4109 5.56293 19.148C5.56293 18.753 5.48738 18.4327 5.42668 18.1756C5.32535 17.7468 5.30027 17.5888 5.49262 17.3964C5.58645 17.3026 5.58645 17.1506 5.49262 17.0568C5.39879 16.963 5.24684 16.963 5.15301 17.0568C4.76355 17.4463 4.85645 17.8506 4.95738 18.2785C4.65043 18.1785 4.33215 18.2525 4.16145 18.4678C4.07676 18.5753 3.91309 18.8764 4.21988 19.3572C4.29121 19.4688 4.43871 19.5012 4.55152 19.4309C4.6634 19.3596 4.69598 19.2109 4.62473 19.0992C4.50957 18.9181 4.50629 18.8066 4.5384 18.7657C4.57637 18.7174 4.69434 18.6925 4.81777 18.7357C4.89754 18.7634 5.08277 18.8591 5.08277 19.1481C5.08277 19.3788 4.97605 19.5904 4.79004 19.7278C4.60355 19.8657 4.36223 19.9047 4.12957 19.8324C3.84223 19.7447 3.64176 19.4421 3.64176 19.0964C3.64176 18.8492 3.69473 18.5992 3.79535 18.3731L5.36816 14.8344C5.49738 14.5435 5.56309 14.2345 5.56309 13.916C5.56309 13.5062 5.37676 13.132 5.08355 12.9037C5.37676 12.6753 5.56309 12.3011 5.56309 11.8914C5.56309 11.5729 5.49738 11.2638 5.36816 10.973L3.79512 7.43392C3.69449 7.20783 3.64152 6.95783 3.64152 6.71057C3.64152 6.36486 3.84207 6.06228 4.12934 5.97455C4.36293 5.90228 4.60332 5.94127 4.7898 6.07916C4.97582 6.21658 5.08254 6.42814 5.08254 6.65892C5.08254 6.94791 4.89723 7.04361 4.81754 7.07127C4.69418 7.11439 4.57621 7.08908 4.53816 7.04127C4.50605 7.00049 4.50934 6.88885 4.62449 6.70775C4.69582 6.59611 4.66316 6.44744 4.55129 6.37611C4.43918 6.30572 4.29121 6.33814 4.21965 6.44978C3.91285 6.93056 4.0766 7.23174 4.16121 7.33916C4.33191 7.55447 4.6502 7.62846 4.95715 7.52853C4.85629 7.95635 4.7634 8.36072 5.15277 8.75017C5.19965 8.79705 5.26113 8.82057 5.32262 8.82057C5.38402 8.82057 5.44551 8.79713 5.49246 8.75017C5.58629 8.65635 5.58629 8.50439 5.49246 8.41056C5.30012 8.21822 5.3252 8.06017 5.42652 7.63142C5.4873 7.37439 5.56277 7.054 5.56277 6.659C5.56277 6.39611 5.47035 6.14486 5.31488 5.93846H5.32262C5.45535 5.93846 5.56277 5.83103 5.56277 5.6983C5.56277 5.56557 5.45535 5.45814 5.32262 5.45814H5.31488C5.47035 5.25174 5.56277 5.00049 5.56277 4.73767C5.56277 4.34267 5.48723 4.02228 5.42652 3.76525C5.3252 3.3365 5.30012 3.17846 5.49246 2.98611C5.58629 2.89228 5.58629 2.74033 5.49246 2.6465C5.39863 2.55267 5.24668 2.55267 5.15285 2.6465C4.7634 3.03596 4.85629 3.44025 4.95723 3.86814C4.65027 3.76783 4.33199 3.84221 4.16129 4.05752C4.0766 4.16494 3.91293 4.46611 4.21973 4.94689C4.29105 5.05853 4.43855 5.09135 4.55137 5.02056C4.66324 4.94924 4.69582 4.80056 4.62457 4.68892C4.50941 4.50783 4.50613 4.39619 4.53824 4.35541C4.57621 4.30713 4.69418 4.28174 4.81762 4.32541C4.89738 4.35306 5.08262 4.44877 5.08262 4.73775C5.08262 4.96853 4.9759 5.1801 4.78988 5.31752C4.6034 5.45541 4.36207 5.49439 4.12941 5.42213C3.84207 5.33439 3.6416 5.03181 3.6416 4.68611C3.6416 4.43892 3.69457 4.18892 3.79191 3.96986L3.79542 3.96255C3.83635 3.87738 4.17828 3.16578 4.26895 2.89377C4.4559 2.33322 4.2659 2.05127 4.13621 1.93353C3.96262 1.77549 3.7091 1.73603 3.49074 1.83174C3.46386 1.84366 3.44073 1.85995 3.41756 1.87627L3.40137 1.8876L3.38467 1.87593C3.37609 1.86989 3.36751 1.86385 3.35879 1.85806C3.04574 2.1033 2.7502 2.36963 2.47348 2.65447C2.48598 2.72814 2.50496 2.80721 2.53379 2.89377C2.62583 3.16959 2.97622 3.89774 3.00585 3.95932L3.00754 3.96283C3.10816 4.18892 3.16113 4.43892 3.16113 4.68619C3.16113 5.03189 2.96059 5.33447 2.67332 5.42221C2.43996 5.49447 2.19934 5.45596 2.01285 5.3176C1.82684 5.18017 1.72012 4.96861 1.72012 4.73783C1.72012 4.44885 1.90543 4.35314 1.98512 4.32549C2.10895 4.28189 2.22621 4.30721 2.26449 4.35549C2.2966 4.39627 2.29332 4.50791 2.17816 4.689C2.10684 4.80064 2.13949 4.94931 2.25137 5.02064C2.36418 5.09197 2.51215 5.05861 2.58301 4.94697C2.8898 4.46619 2.72605 4.16502 2.64145 4.0576C2.47074 3.84228 2.15246 3.76791 1.84551 3.86822C1.89402 3.66244 1.94012 3.46213 1.93215 3.26635C1.69934 3.55541 1.48434 3.85947 1.28926 4.17705C1.26074 4.34471 1.2398 4.5308 1.2398 4.73775C1.2398 5.00056 1.33215 5.25189 1.4877 5.45822H1.47996C1.34723 5.45822 1.2398 5.56564 1.2398 5.69838C1.2398 5.83111 1.34723 5.93853 1.47996 5.93853H1.4877C1.33223 6.14494 1.2398 6.39619 1.2398 6.65908C1.2398 7.05408 1.31535 7.37447 1.37605 7.6315C1.47738 8.06025 1.50246 8.2183 1.31012 8.41064C1.21629 8.50447 1.21629 8.65642 1.31012 8.75025C1.35699 8.79713 1.41848 8.82064 1.47996 8.82064C1.54145 8.82064 1.60285 8.79721 1.6498 8.75025C2.03926 8.3608 1.94637 7.95642 1.84551 7.52861C2.15246 7.62853 2.47074 7.55455 2.64145 7.33924C2.72613 7.23181 2.8898 6.93064 2.58301 6.44986C2.51191 6.33822 2.36348 6.30494 2.25137 6.37619C2.13949 6.44752 2.10691 6.59619 2.17816 6.70783C2.29332 6.88892 2.2966 7.00057 2.26449 7.04135C2.22629 7.08924 2.10902 7.11455 1.98512 7.07135C1.90535 7.04369 1.72012 6.94799 1.72012 6.659C1.72012 6.42822 1.82684 6.21666 2.01285 6.07924C2.19934 5.94135 2.44043 5.90189 2.67332 5.97463C2.96066 6.06236 3.16113 6.36486 3.16113 6.71064C3.16113 6.95783 3.10809 7.20791 3.00754 7.434L1.43473 10.9727C1.30551 11.2635 1.2398 11.5726 1.2398 11.8911C1.2398 12.3009 1.42613 12.6751 1.71934 12.9034C1.42613 13.1317 1.2398 13.5059 1.2398 13.9156C1.2398 14.2342 1.30551 14.5433 1.43473 14.8341L3.00754 18.3728C3.10816 18.5989 3.16113 18.8489 3.16113 19.0961C3.16113 19.4418 2.96059 19.7444 2.67332 19.8321C2.43996 19.9049 2.19934 19.8659 2.01285 19.7275C1.82684 19.5901 1.72012 19.3785 1.72012 19.1478C1.72012 18.8588 1.90543 18.7631 1.98512 18.7354C2.10895 18.6923 2.22621 18.7171 2.26449 18.7654C2.2966 18.8063 2.29332 18.9178 2.17816 19.0989C2.10684 19.2106 2.13949 19.3592 2.25137 19.4306C2.36418 19.5019 2.51215 19.469 2.58301 19.3569C2.8898 18.8761 2.72605 18.5749 2.64145 18.4675C2.47074 18.2522 2.15246 18.1782 1.84551 18.2781C1.94637 17.8503 2.03926 17.446 1.6498 17.0565C1.55598 16.9627 1.40402 16.9627 1.3102 17.0565C1.21637 17.1503 1.21637 17.3023 1.3102 17.3961C1.50254 17.5885 1.47746 17.7465 1.37613 18.1753C1.31535 18.4323 1.23988 18.7527 1.23988 19.1477C1.23988 19.4106 1.33223 19.6618 1.48777 19.8682H1.48004C1.3473 19.8682 1.23988 19.9756 1.23988 20.1084C1.23988 20.2411 1.3473 20.3485 1.48004 20.3485H1.48777C1.3323 20.5549 1.23988 20.8062 1.23988 21.0691C1.23988 21.464 1.31543 21.7844 1.37613 22.0415C1.47746 22.4703 1.50254 22.6283 1.3102 22.8206C1.21637 22.9145 1.21637 23.0664 1.3102 23.1603C1.35707 23.2072 1.41855 23.2306 1.48004 23.2306C1.54152 23.2306 1.60293 23.2072 1.64988 23.1603C2.03934 22.7708 1.94645 22.3664 1.84559 21.9387C2.15254 22.0386 2.47082 21.9646 2.64152 21.7493C2.72621 21.6419 2.88988 21.3407 2.58309 20.8599C2.51199 20.7483 2.36355 20.715 2.25145 20.7863C2.13957 20.8576 2.10699 21.0063 2.17824 21.1179C2.2934 21.299 2.29668 21.4106 2.26457 21.4514C2.22637 21.4997 2.1091 21.5251 1.9852 21.4814C1.90543 21.4538 1.7202 21.3581 1.7202 21.0691C1.7202 20.8383 1.82691 20.6267 2.01293 20.4893C2.19941 20.3514 2.44051 20.312 2.6734 20.3847C2.96074 20.4724 3.16121 20.775 3.16121 21.1207C3.16121 21.3679 3.10816 21.618 3.00762 21.844L1.4348 25.3828C1.30559 25.6736 1.23988 25.9827 1.23988 26.3012C1.23988 26.711 1.42621 27.0852 1.71941 27.3135C1.42621 27.5418 1.23988 27.916 1.23988 28.3257C1.23988 28.6442 1.30559 28.9534 1.4348 29.2442L3.00762 32.7829C3.10824 33.009 3.16121 33.259 3.16121 33.5063C3.16121 33.852 2.96066 34.1546 2.6734 34.2423C2.44004 34.315 2.19941 34.2756 2.01293 34.1377C1.82691 34.0003 1.7202 33.7887 1.7202 33.5579C1.7202 33.269 1.90551 33.1732 1.9852 33.1456C2.10902 33.1024 2.22629 33.1273 2.26457 33.1756C2.29668 33.2163 2.2934 33.328 2.17824 33.5091C2.10691 33.6207 2.13957 33.7694 2.25145 33.8407C2.36426 33.9121 2.51223 33.8792 2.58309 33.7671C2.88988 33.2862 2.72613 32.9851 2.64152 32.8777C2.47082 32.6619 2.15254 32.588 1.84559 32.6883C1.94645 32.2604 2.03934 31.8561 1.64988 31.4667C1.55605 31.3728 1.4041 31.3728 1.31027 31.4667C1.21645 31.5605 1.21645 31.7124 1.31027 31.8063C1.50262 31.9986 1.47754 32.1567 1.37621 32.5854C1.31543 32.8424 1.23996 33.1628 1.23996 33.5578C1.23996 33.9342 1.42035 34.2927 1.72184 34.5185C1.42035 34.7444 1.23996 35.1028 1.23996 35.4792C1.23996 35.5785 1.24473 35.6731 1.25285 35.7631C1.4541 36.0967 1.67723 36.4156 1.9198 36.7182C1.90355 36.5969 1.87504 36.4738 1.84559 36.3488C2.15254 36.4488 2.47082 36.3748 2.64152 36.1595C2.72621 36.0521 2.88988 35.751 2.58309 35.2701C2.51199 35.1585 2.36355 35.1256 2.25145 35.1964C2.13957 35.2678 2.10699 35.4164 2.17824 35.5281C2.2934 35.7091 2.29668 35.8208 2.26457 35.8616C2.22637 35.9099 2.1091 35.9348 1.9852 35.8916C1.90543 35.8639 1.7202 35.7682 1.7202 35.4792C1.7202 35.2485 1.82691 35.0369 2.01293 34.8995C2.19941 34.7616 2.44051 34.7226 2.6734 34.7949C2.96074 34.8826 3.16121 35.1852 3.16121 35.5309C3.16121 35.7781 3.10816 36.0281 3.0109 36.2471L3.00745 36.2543C2.96679 36.339 2.62465 37.0511 2.53387 37.3232C2.52831 37.3399 2.52365 37.3559 2.519 37.3719L2.51449 37.3874C2.65113 37.5261 2.7923 37.6603 2.93785 37.7897C2.93184 37.7137 2.94434 37.6101 2.98934 37.4752C3.05145 37.2894 3.27621 36.8061 3.40137 36.5437C3.52379 36.7999 3.7509 37.2881 3.81348 37.4752C3.89887 37.7313 3.86902 37.8772 3.81277 37.9283C3.77504 37.9626 3.71965 37.9611 3.68496 37.9456C3.6416 37.9264 3.6416 37.8959 3.6416 37.8809C3.6416 37.7481 3.53418 37.6407 3.40145 37.6407C3.26871 37.6407 3.16129 37.7481 3.16129 37.8809C3.16129 37.8959 3.16129 37.9263 3.11801 37.9456C3.32355 38.1186 3.53715 38.2824 3.75824 38.4363C3.89637 38.4313 4.0309 38.3792 4.13629 38.2834C4.2659 38.1659 4.45582 37.884 4.26895 37.3235ZM2.98926 2.74166C2.90387 2.48556 2.93363 2.33963 2.98996 2.28853C3.02676 2.25385 3.08262 2.25525 3.11777 2.27119C3.16113 2.29041 3.16113 2.32088 3.16113 2.33596C3.16113 2.46869 3.26855 2.57611 3.40129 2.57611C3.53402 2.57611 3.64145 2.46869 3.64145 2.33596C3.64145 2.32096 3.64145 2.29049 3.6848 2.27119C3.71949 2.25525 3.77488 2.25385 3.81262 2.28853C3.86895 2.33971 3.89871 2.48556 3.81332 2.74166C3.75121 2.92744 3.52645 3.41072 3.40129 3.67314C3.27895 3.41689 3.05184 2.92869 2.98926 2.74166ZM3.40137 5.94939C3.46926 5.85369 3.5498 5.76908 3.64074 5.6983C3.5498 5.62752 3.46918 5.54291 3.40137 5.44721C3.33348 5.54291 3.25293 5.62752 3.16199 5.6983C3.25293 5.76908 3.33348 5.85369 3.40137 5.94939ZM1.87379 11.1678L3.40137 7.73088L4.92895 11.1678C5.02957 11.3939 5.08254 11.6439 5.08254 11.8912C5.08254 12.2369 4.88199 12.5395 4.59473 12.6272C4.3616 12.6999 4.12051 12.6605 3.93426 12.5226C3.74824 12.3852 3.64152 12.1736 3.64152 11.9428C3.64152 11.6538 3.82684 11.5582 3.90652 11.5305C4.03012 11.4874 4.14785 11.5122 4.1859 11.5605C4.21801 11.6013 4.21473 11.7129 4.09957 11.894C4.02824 12.0056 4.0609 12.1543 4.17277 12.2256C4.28559 12.2965 4.43356 12.2641 4.50441 12.152C4.81121 11.6712 4.64746 11.37 4.56277 11.2626C4.38871 11.0431 4.06184 10.968 3.74895 11.0768C3.71324 11.0892 3.67723 11.1045 3.64152 11.1226V10.5151L3.64191 10.5155C3.64926 10.6419 3.75387 10.7418 3.88168 10.7418C4.01441 10.7418 4.12184 10.6344 4.12184 10.5017C4.12184 10.345 4.01231 10.0733 3.64152 9.98908V9.54103C3.64152 9.4083 3.5341 9.30088 3.40137 9.30088C3.26863 9.30088 3.16121 9.4083 3.16121 9.54103V9.98908C2.79043 10.0733 2.6809 10.345 2.6809 10.5017C2.6809 10.6344 2.78809 10.7498 2.92059 10.7498C3.05332 10.7498 3.16027 10.6503 3.16027 10.5176C3.16035 10.5171 3.16105 10.5167 3.16121 10.5162V11.1225C3.12551 11.1044 3.08949 11.0891 3.05379 11.0767C2.7409 10.9679 2.41371 11.043 2.23996 11.2625C2.15527 11.3699 1.9916 11.6711 2.2984 12.1519C2.36973 12.2635 2.51793 12.2959 2.63004 12.2256C2.74191 12.1542 2.77449 12.0056 2.70324 11.8939C2.58809 11.7128 2.5848 11.6012 2.61691 11.5604C2.65465 11.5121 2.77246 11.4872 2.89629 11.5304C2.97605 11.5581 3.16129 11.6538 3.16129 11.9428C3.16129 12.1735 3.05457 12.3851 2.86855 12.5225C2.68207 12.6604 2.44121 12.6999 2.20809 12.6271C1.92074 12.5394 1.72027 12.2368 1.72027 11.8911C1.72012 11.6439 1.77316 11.3939 1.87379 11.1678ZM3.40137 13.1553C3.47035 13.0616 3.54824 12.9745 3.64309 12.9035C3.54824 12.8324 3.47027 12.7453 3.40137 12.6516C3.33238 12.7453 3.25449 12.8324 3.15965 12.9035C3.25441 12.9745 3.33238 13.0616 3.40137 13.1553ZM1.87379 14.639C1.77316 14.4129 1.7202 14.1629 1.7202 13.9156C1.7202 13.5699 1.92074 13.2674 2.20801 13.1796C2.44137 13.1074 2.68223 13.1463 2.86848 13.2842C3.05449 13.4217 3.16121 13.6332 3.16121 13.864C3.16121 14.153 2.9759 14.2487 2.89621 14.2763C2.77238 14.3199 2.65465 14.2946 2.61684 14.2463C2.58473 14.2056 2.58801 14.0939 2.70316 13.9128C2.77449 13.8012 2.74184 13.6525 2.62996 13.5812C2.51785 13.5103 2.36988 13.5432 2.29832 13.6549C1.99152 14.1357 2.15527 14.4368 2.23988 14.5442C2.41371 14.7638 2.7409 14.8388 3.05371 14.73C3.08941 14.7177 3.12543 14.7024 3.16113 14.6842V15.2917L3.16066 15.291C3.1534 15.1649 3.04879 15.0649 2.92098 15.0649C2.78824 15.0649 2.68082 15.1724 2.68082 15.3051C2.68082 15.4618 2.79035 15.7335 3.16113 15.8177V16.2657C3.16113 16.3985 3.26855 16.5059 3.40129 16.5059C3.53402 16.5059 3.64145 16.3985 3.64145 16.2657V15.8177C4.01223 15.7335 4.12176 15.4617 4.12176 15.3051C4.12176 15.1724 4.01457 15.057 3.88207 15.057C3.74934 15.057 3.64238 15.1564 3.64238 15.2892L3.64207 15.2897L3.6416 15.2901L3.64152 14.6842C3.67723 14.7024 3.71324 14.7177 3.74895 14.73C4.06184 14.8388 4.38879 14.7638 4.56277 14.5442C4.64746 14.4368 4.81113 14.1356 4.50441 13.6549C4.43309 13.5428 4.28488 13.5099 4.17277 13.5812C4.0609 13.6525 4.02832 13.8012 4.09957 13.9128C4.21473 14.0939 4.21801 14.2056 4.1859 14.2463C4.14793 14.2946 4.0302 14.32 3.90652 14.2763C3.82676 14.2487 3.64152 14.153 3.64152 13.864C3.64152 13.6332 3.74824 13.4217 3.93426 13.2842C4.12074 13.1463 4.36207 13.1074 4.59473 13.1796C4.88207 13.2674 5.08254 13.5699 5.08254 13.9156C5.08254 14.1628 5.02957 14.4129 4.92895 14.639L3.40137 18.076L1.87379 14.639ZM3.40137 20.3596C3.46926 20.2639 3.5498 20.1793 3.64074 20.1085C3.5498 20.0378 3.46918 19.9531 3.40137 19.8574C3.33348 19.9531 3.25293 20.0378 3.16199 20.1085C3.25293 20.1793 3.33348 20.2639 3.40137 20.3596ZM1.87379 25.5781L3.40137 22.1412L4.92895 25.5781C5.02957 25.8042 5.08254 26.0542 5.08254 26.3014C5.08254 26.6471 4.88199 26.9497 4.59473 27.0374C4.3616 27.1102 4.12051 27.0707 3.93426 26.9328C3.74824 26.7954 3.64152 26.5838 3.64152 26.3531C3.64152 26.0641 3.82684 25.9685 3.90652 25.9407C4.03012 25.8976 4.14785 25.9224 4.1859 25.9707C4.21801 26.0115 4.21473 26.1231 4.09957 26.3042C4.02824 26.4159 4.0609 26.5645 4.17277 26.6359C4.28559 26.7072 4.43356 26.6743 4.50441 26.5622C4.81121 26.0814 4.64746 25.7803 4.56277 25.6728C4.38871 25.4533 4.06184 25.3787 3.74895 25.487C3.71324 25.4994 3.67723 25.5147 3.64152 25.5328V24.9253L3.64199 24.926C3.64926 25.0521 3.75387 25.152 3.88168 25.152C4.01441 25.152 4.12184 25.0446 4.12184 24.9119C4.12184 24.7553 4.01231 24.4835 3.64152 24.3993V23.9512C3.64152 23.8185 3.5341 23.711 3.40137 23.711C3.26863 23.711 3.16121 23.8185 3.16121 23.9512V24.3993C2.79043 24.4835 2.6809 24.7553 2.6809 24.9119C2.6809 25.0446 2.78809 25.16 2.92059 25.16C3.05332 25.16 3.16027 25.0606 3.16027 24.9278L3.16052 24.9274L3.16105 24.9269L3.16121 25.5328C3.12551 25.5146 3.08949 25.4993 3.05379 25.487C2.7409 25.3786 2.41371 25.4532 2.23996 25.6728C2.15527 25.7802 1.9916 26.0813 2.2984 26.5621C2.36973 26.6738 2.51793 26.7061 2.63004 26.6358C2.74191 26.5645 2.77449 26.4158 2.70324 26.3042C2.58809 26.1231 2.5848 26.0114 2.61691 25.9706C2.65465 25.9224 2.77246 25.8974 2.89629 25.9406C2.97605 25.9683 3.16129 26.064 3.16129 26.353C3.16129 26.5838 3.05457 26.7953 2.86855 26.9328C2.68207 27.0706 2.44121 27.1101 2.20809 27.0374C1.92074 26.9496 1.72027 26.6471 1.72027 26.3013C1.72012 26.0542 1.77316 25.8042 1.87379 25.5781ZM3.40137 27.5656C3.47035 27.4718 3.54824 27.3848 3.64309 27.3137C3.54824 27.2426 3.47027 27.1556 3.40137 27.0618C3.33238 27.1556 3.25449 27.2426 3.15965 27.3137C3.25441 27.3847 3.33238 27.4718 3.40137 27.5656ZM1.87379 29.0493C1.77316 28.8232 1.7202 28.5731 1.7202 28.326C1.7202 27.9803 1.92074 27.6777 2.20801 27.5899C2.44137 27.5177 2.68223 27.5567 2.86848 27.6945C3.05449 27.832 3.16121 28.0435 3.16121 28.2743C3.16121 28.5633 2.9759 28.659 2.89621 28.6867C2.77238 28.7298 2.65465 28.7049 2.61684 28.6567C2.58473 28.6159 2.58801 28.5042 2.70316 28.3231C2.77449 28.2115 2.74184 28.0628 2.62996 27.9915C2.51785 27.9211 2.36988 27.954 2.29832 28.0652C1.99152 28.546 2.15527 28.8471 2.23988 28.9545C2.41371 29.1741 2.7409 29.2496 3.05371 29.1403C3.08941 29.1279 3.12543 29.1127 3.16113 29.0945V29.702L3.16074 29.7016C3.1534 29.5752 3.04879 29.4753 2.92098 29.4753C2.78824 29.4753 2.68082 29.5827 2.68082 29.7154C2.68082 29.8721 2.79035 30.1438 3.16113 30.228V30.6761C3.16113 30.8088 3.26855 30.9163 3.40129 30.9163C3.53402 30.9163 3.64145 30.8088 3.64145 30.6761V30.228C4.01223 30.1438 4.12176 29.872 4.12176 29.7154C4.12176 29.5827 4.01457 29.4673 3.88207 29.4673C3.74934 29.4673 3.64238 29.5667 3.64238 29.6995L3.6419 29.7002L3.64145 29.7009V29.0945C3.67715 29.1127 3.71316 29.128 3.74887 29.1403C4.06176 29.2496 4.38871 29.1741 4.5627 28.9545C4.64738 28.8471 4.81105 28.546 4.50434 28.0652C4.43301 27.9535 4.2848 27.9207 4.1727 27.9915C4.06082 28.0628 4.02824 28.2115 4.09949 28.3231C4.21465 28.5042 4.21793 28.6159 4.18582 28.6567C4.14785 28.7049 4.03012 28.7299 3.90645 28.6867C3.82668 28.659 3.64145 28.5633 3.64145 28.2743C3.64145 28.0435 3.74816 27.832 3.93418 27.6945C4.12066 27.5567 4.36199 27.5172 4.59465 27.5899C4.88199 27.6777 5.08246 27.9803 5.08246 28.326C5.08246 28.5731 5.02949 28.8232 4.92887 29.0493L3.40129 32.4862L1.87379 29.0493ZM3.16199 34.5188C3.25293 34.5896 3.33348 34.6742 3.40137 34.7699C3.46918 34.6742 3.5498 34.5896 3.64074 34.5188C3.5498 34.448 3.46926 34.3634 3.40137 34.2677C3.33348 34.3634 3.25293 34.448 3.16199 34.5188Z" fill="#FFE15A"/>
<ellipse cx="21.117" cy="17.8016" rx="4.55938" ry="4.55937" fill="#FFE15A"/>
<path d="M21.4588 11.9877C21.4588 12.1766 21.3057 12.3297 21.1169 12.3297C20.928 12.3297 20.7749 12.1766 20.7749 11.9877C20.7749 11.7989 21.1169 10.9618 21.1169 10.9618C21.1169 10.9618 21.4588 11.7989 21.4588 11.9877Z" fill="#FFE15A"/>
<path d="M20.7749 23.6148C20.7749 23.426 20.928 23.2728 21.1169 23.2728C21.3058 23.2728 21.4588 23.426 21.4588 23.6148C21.4588 23.8037 21.1169 24.6407 21.1169 24.6407C21.1169 24.6407 20.7749 23.8037 20.7749 23.6148Z" fill="#FFE15A"/>
<path d="M26.9303 18.1433C26.7415 18.1433 26.5884 17.9901 26.5884 17.8013C26.5884 17.6125 26.7415 17.4594 26.9303 17.4594C27.1192 17.4594 27.9563 17.8013 27.9563 17.8013C27.9563 17.8013 27.1192 18.1433 26.9303 18.1433Z" fill="#FFE15A"/>
<path d="M15.3033 17.4594C15.4921 17.4594 15.6452 17.6125 15.6452 17.8013C15.6452 17.9901 15.4921 18.1433 15.3033 18.1433C15.1145 18.1433 14.2773 17.8013 14.2773 17.8013C14.2773 17.8013 15.1145 17.4594 15.3033 17.4594Z" fill="#FFE15A"/>
<path d="M25.4695 13.9324C25.336 14.0659 25.1194 14.0659 24.9859 13.9324C24.8524 13.7989 24.8524 13.5823 24.9859 13.4488C25.1194 13.3152 25.9531 12.9652 25.9531 12.9652C25.9531 12.9652 25.6031 13.7988 25.4695 13.9324Z" fill="#FFE15A"/>
<path d="M16.7644 21.6702C16.898 21.5367 17.1145 21.5367 17.248 21.6702C17.3815 21.8038 17.3815 22.0203 17.248 22.1538C17.1145 22.2873 16.2808 22.6374 16.2808 22.6374C16.2808 22.6374 16.6309 21.8038 16.7644 21.6702Z" fill="#FFE15A"/>
<path d="M24.9859 22.1538C24.8524 22.0203 24.8524 21.8037 24.9859 21.6702C25.1194 21.5367 25.336 21.5367 25.4695 21.6702C25.603 21.8038 25.9531 22.6375 25.9531 22.6375C25.9531 22.6375 25.1194 22.2874 24.9859 22.1538Z" fill="#FFE15A"/>
<path d="M17.2479 13.4486C17.3815 13.5822 17.3815 13.7987 17.2479 13.9322C17.1144 14.0657 16.8979 14.0657 16.7644 13.9322C16.6308 13.7987 16.2808 12.965 16.2808 12.965C16.2808 12.965 17.1144 13.3151 17.2479 13.4486Z" fill="#FFE15A"/>
<path d="M19.208 12.2995C19.2803 12.474 19.1975 12.674 19.023 12.7463C18.8485 12.8186 18.6484 12.7357 18.5762 12.5612C18.5039 12.3868 18.4995 11.4825 18.4995 11.4825C18.4995 11.4825 19.1357 12.125 19.208 12.2995Z" fill="#FFE15A"/>
<path d="M23.0256 23.3031C22.9534 23.1287 23.0362 22.9286 23.2107 22.8563C23.3852 22.7841 23.5852 22.8669 23.6575 23.0414C23.7298 23.2159 23.7341 24.1201 23.7341 24.1201C23.7341 24.1201 23.0979 23.4776 23.0256 23.3031Z" fill="#FFE15A"/>
<path d="M26.6189 15.8925C26.4445 15.9647 26.2444 15.8819 26.1721 15.7074C26.0999 15.5329 26.1827 15.3329 26.3572 15.2606C26.5316 15.1883 27.4359 15.184 27.4359 15.184C27.4359 15.184 26.7934 15.8202 26.6189 15.8925Z" fill="#FFE15A"/>
<path d="M15.6153 19.7101C15.7897 19.6378 15.9898 19.7206 16.0621 19.8952C16.1344 20.0696 16.0515 20.2697 15.877 20.342C15.7026 20.4142 14.7983 20.4186 14.7983 20.4186C14.7983 20.4186 15.4408 19.7823 15.6153 19.7101Z" fill="#FFE15A"/>
<path d="M23.6575 12.5612C23.5852 12.7357 23.3852 12.8186 23.2107 12.7463C23.0362 12.674 22.9534 12.474 23.0256 12.2995C23.0979 12.125 23.7341 11.4825 23.7341 11.4825C23.7341 11.4825 23.7298 12.3867 23.6575 12.5612Z" fill="#FFE15A"/>
<path d="M18.5762 23.0414C18.6484 22.8669 18.8485 22.7841 19.0229 22.8563C19.1974 22.9286 19.2803 23.1287 19.208 23.3031C19.1358 23.4776 18.4995 24.1201 18.4995 24.1201C18.4995 24.1201 18.5038 23.2159 18.5762 23.0414Z" fill="#FFE15A"/>
<path d="M26.3572 20.3419C26.1827 20.2697 26.0998 20.0696 26.1721 19.8951C26.2444 19.7207 26.4445 19.6378 26.6189 19.7101C26.7934 19.7823 27.4359 20.4186 27.4359 20.4186C27.4359 20.4186 26.5316 20.4142 26.3572 20.3419Z" fill="#FFE15A"/>
<path d="M15.877 15.2606C16.0515 15.3329 16.1344 15.5329 16.0621 15.7074C15.9898 15.8819 15.7897 15.9647 15.6153 15.8925C15.4408 15.8202 14.7983 15.184 14.7983 15.184C14.7983 15.184 15.7025 15.1883 15.877 15.2606Z" fill="#FFE15A"/>
<path d="M20.3181 12.0327C20.3549 12.2179 20.2346 12.3979 20.0494 12.4348C19.8641 12.4717 19.6841 12.3514 19.6473 12.1662C19.6104 11.9809 19.7825 11.0933 19.7825 11.0933C19.7825 11.0933 20.2812 11.8475 20.3181 12.0327Z" fill="#FFE15A"/>
<path d="M21.9158 23.5698C21.8789 23.3845 21.9993 23.2045 22.1845 23.1677C22.3697 23.1308 22.5497 23.2511 22.5866 23.4363C22.6235 23.6216 22.4514 24.5092 22.4514 24.5092C22.4514 24.5092 21.9527 23.755 21.9158 23.5698Z" fill="#FFE15A"/>
<path d="M26.8853 17.0025C26.7001 17.0394 26.5201 16.9191 26.4832 16.7338C26.4463 16.5486 26.5666 16.3685 26.7519 16.3317C26.9371 16.2948 27.8248 16.467 27.8248 16.467C27.8248 16.467 27.0706 16.9657 26.8853 17.0025Z" fill="#FFE15A"/>
<path d="M15.3486 18.6002C15.5339 18.5633 15.7139 18.6836 15.7507 18.8688C15.7876 19.0541 15.6673 19.2341 15.4821 19.2709C15.2968 19.3078 14.4092 19.1357 14.4092 19.1357C14.4092 19.1357 15.1634 18.6369 15.3486 18.6002Z" fill="#FFE15A"/>
<path d="M24.6312 13.1575C24.5263 13.3145 24.3139 13.3568 24.1569 13.2518C23.9999 13.1469 23.9576 12.9346 24.0625 12.7775C24.1675 12.6205 24.9168 12.1145 24.9168 12.1145C24.9168 12.1145 24.7361 13.0004 24.6312 13.1575Z" fill="#FFE15A"/>
<path d="M17.603 22.4451C17.7079 22.2881 17.9203 22.2458 18.0773 22.3507C18.2343 22.4557 18.2766 22.668 18.1717 22.825C18.0668 22.9821 17.3174 23.4881 17.3174 23.4881C17.3174 23.4881 17.4981 22.6022 17.603 22.4451Z" fill="#FFE15A"/>
<path d="M25.7609 21.3154C25.6039 21.2105 25.5616 20.9981 25.6665 20.8411C25.7715 20.6841 25.9838 20.6418 26.1408 20.7467C26.2979 20.8517 26.8039 21.601 26.8039 21.601C26.8039 21.601 25.9179 21.4204 25.7609 21.3154Z" fill="#FFE15A"/>
<path d="M16.4731 14.2871C16.6302 14.392 16.6724 14.6044 16.5675 14.7614C16.4626 14.9184 16.2503 14.9607 16.0932 14.8558C15.9362 14.7508 15.4302 14.0015 15.4302 14.0015C15.4302 14.0015 16.3161 14.1822 16.4731 14.2871Z" fill="#FFE15A"/>
<path d="M18.1717 12.7775C18.2766 12.9346 18.2343 13.1469 18.0773 13.2518C17.9203 13.3568 17.7079 13.3145 17.603 13.1575C17.4981 13.0004 17.3174 12.1145 17.3174 12.1145C17.3174 12.1145 18.0668 12.6204 18.1717 12.7775Z" fill="#FFE15A"/>
<path d="M24.0625 22.825C23.9576 22.668 23.9999 22.4557 24.1569 22.3507C24.3139 22.2458 24.5263 22.2881 24.6312 22.4451C24.7361 22.6022 24.9168 23.4881 24.9168 23.4881C24.9168 23.4881 24.1675 22.9821 24.0625 22.825Z" fill="#FFE15A"/>
<path d="M26.1408 14.8558C25.9838 14.9607 25.7715 14.9184 25.6665 14.7614C25.5616 14.6044 25.6039 14.392 25.7609 14.2871C25.9179 14.1822 26.8039 14.0015 26.8039 14.0015C26.8039 14.0015 26.2979 14.7508 26.1408 14.8558Z" fill="#FFE15A"/>
<path d="M16.0932 20.7467C16.2503 20.6418 16.4626 20.6841 16.5675 20.8411C16.6724 20.9981 16.6302 21.2105 16.4731 21.3154C16.3161 21.4203 15.4302 21.601 15.4302 21.601C15.4302 21.601 15.9362 20.8517 16.0932 20.7467Z" fill="#FFE15A"/>
<path d="M22.5866 12.1662C22.5497 12.3514 22.3697 12.4717 22.1845 12.4348C21.9993 12.3979 21.8789 12.2179 21.9158 12.0327C21.9527 11.8475 22.4514 11.0933 22.4514 11.0933C22.4514 11.0933 22.6234 11.9809 22.5866 12.1662Z" fill="#FFE15A"/>
<path d="M19.6473 23.4365C19.6841 23.2512 19.8641 23.1309 20.0494 23.1678C20.2346 23.2047 20.3549 23.3847 20.3181 23.5699C20.2812 23.7551 19.7825 24.5093 19.7825 24.5093C19.7825 24.5093 19.6104 23.6217 19.6473 23.4365Z" fill="#FFE15A"/>
<path d="M26.7519 19.2709C26.5666 19.2341 26.4463 19.0541 26.4832 18.8688C26.5201 18.6836 26.7001 18.5633 26.8853 18.6002C27.0706 18.637 27.8248 19.1357 27.8248 19.1357C27.8248 19.1357 26.9371 19.3077 26.7519 19.2709Z" fill="#FFE15A"/>
<path d="M15.4821 16.3317C15.6673 16.3686 15.7876 16.5486 15.7507 16.7338C15.7139 16.9191 15.5339 17.0394 15.3486 17.0025C15.1634 16.9656 14.4092 16.467 14.4092 16.467C14.4092 16.467 15.2968 16.2948 15.4821 16.3317Z" fill="#FFE15A"/>
<path fill-rule="evenodd" clip-rule="evenodd" d="M31.5004 19.142C31.556 19.0092 31.7087 18.9448 31.8422 19.001C31.9755 19.0562 32.0386 19.2094 31.983 19.3424L31.9748 19.3623C31.8974 19.5467 31.3693 20.7908 30.672 22.0548C30.8862 21.827 31.1033 21.5834 31.3096 21.3316C31.3185 21.3207 31.3265 21.3107 31.3337 21.3019C31.3565 21.2738 31.3703 21.2568 31.374 21.2525L31.3742 21.252L31.3747 21.2514C31.4648 21.1395 31.6296 21.1206 31.7422 21.2126C31.8545 21.303 31.8722 21.4674 31.7818 21.5798L31.7284 21.6456C31.5315 21.8877 30.8424 22.7304 30.1578 23.5077C30.339 23.3952 30.5053 23.286 30.6353 23.1895C30.6793 23.1552 30.7216 23.122 30.7625 23.0898C30.8743 23.0015 31.0375 23.0198 31.1271 23.1302C31.2172 23.241 31.2019 23.4034 31.0926 23.4953C31.053 23.5285 31.0081 23.5637 30.9586 23.6005C30.6769 23.8202 30.0365 24.312 29.4333 24.7252C29.5008 24.7119 29.5541 24.6986 29.5875 24.6859C29.7063 24.6379 29.8424 24.6859 29.9078 24.7967C29.9726 24.9075 29.9479 25.049 29.8493 25.1307C29.8291 25.1475 29.4433 25.4606 28.5444 25.7435C28.6047 25.7747 28.6516 25.8288 28.6731 25.8957C28.7053 25.9968 28.6731 26.1077 28.5919 26.1755C28.5565 26.2057 27.6877 26.9099 24.8743 27.1883C24.7264 27.1965 24.6023 27.0969 24.5883 26.9534C24.5739 26.8098 24.6791 26.6816 24.8226 26.6673C26.3047 26.5212 27.2079 26.2552 27.7137 26.0514C27.5793 25.9942 27.4907 25.9443 27.48 25.9383L27.4796 25.938C27.3848 25.8839 27.3338 25.7766 27.3511 25.6689C27.3688 25.5612 27.4512 25.4759 27.5583 25.4545C27.7483 25.4167 27.9232 25.3753 28.083 25.3324C28.0294 25.2941 27.9906 25.2359 27.9781 25.167C27.9541 25.0362 28.0322 24.908 28.1594 24.8697C28.2353 24.8467 28.3446 24.7931 28.4776 24.717C28.4362 24.6128 28.4656 24.4908 28.5558 24.4177C28.6936 24.3054 28.8752 24.1287 29.08 23.9142C28.9969 23.8202 28.9923 23.6783 29.0718 23.5787C29.191 23.429 29.3105 23.2656 29.4285 23.093C29.3984 23.0859 29.369 23.0736 29.3417 23.0557C29.225 22.978 29.19 22.8223 29.2625 22.7023C29.3335 22.5843 29.4206 22.3846 29.5168 22.1308C29.4431 22.1992 29.334 22.2202 29.238 22.1798C29.114 22.1277 29.0496 21.9903 29.0894 21.8616C29.1126 21.786 29.1341 21.6997 29.154 21.6052C27.6303 24.7312 24.3963 26.0861 24.3554 26.103C24.3311 26.1127 24.3056 26.1193 24.2796 26.1213C24.2681 26.1223 23.1216 26.227 22.1308 26.5712C21.6175 26.7495 21.3357 26.9216 21.0374 27.1045C20.8655 27.2093 20.6844 27.3171 20.4634 27.4286C20.534 27.4648 20.5924 27.5211 20.6076 27.602C20.6286 27.7133 20.5754 27.8252 20.4764 27.8798C20.3591 27.9442 20.2125 28.0427 20.0905 28.1424C20.8851 28.1977 21.9008 28.2284 22.5282 27.9849C22.6625 27.9343 22.8142 27.9997 22.8663 28.1345C22.8797 28.1692 22.8847 28.2048 22.8832 28.2398C23.2653 28.1816 23.6165 28.0716 23.8346 27.8634C23.9968 27.7091 24.0486 27.5161 24.0491 27.5141C24.0787 27.3899 24.1921 27.3046 24.3193 27.3138L27.3579 27.4966C27.4292 27.5007 27.4958 27.5345 27.5418 27.5891C27.5879 27.6437 27.6097 27.7147 27.602 27.7857C27.5936 27.8638 27.4886 28.4966 26.3296 28.5032C26.3191 28.6181 26.2808 28.7442 26.1863 28.8561C26.0129 29.0619 25.7131 29.139 25.2954 29.0884C25.2042 29.1901 25.0619 29.3034 24.8753 29.3101C24.8028 29.3137 24.7116 29.2999 24.6158 29.2442C24.4059 29.4357 24.0883 29.6094 23.7198 29.5353C23.6166 29.6027 23.4614 29.6748 23.2742 29.6681C23.1917 29.6645 23.085 29.6431 22.9734 29.5767C22.847 29.6732 22.6686 29.7718 22.4645 29.7728H22.4602C22.3658 29.7728 22.2416 29.7519 22.115 29.6702C21.9927 29.7305 21.8236 29.7835 21.6411 29.7585C21.5601 29.7468 21.4579 29.7156 21.3558 29.6421C21.2208 29.7274 21.0415 29.7994 20.8618 29.7534C20.7982 29.7371 20.6997 29.6952 20.6192 29.59C20.527 29.592 20.3865 29.5961 20.18 29.6033C20.0779 29.6069 19.9806 29.5487 19.9354 29.4547C19.8904 29.3612 19.9052 29.2499 19.9729 29.1712C19.9729 29.1712 20.1979 28.9096 20.3915 28.6839C20.082 28.668 19.7909 28.6453 19.5483 28.6253C19.4927 28.6209 19.4389 28.6163 19.3877 28.6119C19.2034 28.5962 19.052 28.5833 18.9707 28.5901C18.8282 28.5947 18.7827 28.6325 18.772 28.6442C18.7761 28.7469 18.7143 28.8445 18.6218 28.8904C18.5843 28.9093 18.5429 28.9185 18.5015 28.9185C18.4413 28.9185 18.3813 28.8986 18.334 28.8598C18.1821 28.7341 18.0748 28.492 18.1992 28.2561C18.3239 28.0187 18.631 27.6795 19.3728 27.3361C19.404 27.3114 19.4413 27.297 19.4811 27.2892L19.496 27.2827C19.5735 27.2486 19.6511 27.2145 19.7383 27.1805C20.1633 27.0151 20.4317 26.8599 20.679 26.7098C17.9936 26.6312 15.7548 25.3226 14.167 22.8795C14.0861 22.7549 14.0089 22.6302 13.9347 22.5059C13.9261 22.503 13.9172 22.5012 13.9084 22.4993C13.891 22.4956 13.8737 22.492 13.8586 22.4806C13.6835 22.3493 13.5168 22.1954 13.3582 22.0259C13.3454 22.0505 13.3293 22.0735 13.3086 22.0935C13.2583 22.142 13.1929 22.167 13.1268 22.167C13.0779 22.167 13.0287 22.1532 12.9853 22.1256C12.902 22.0721 12.8186 22.0072 12.7352 21.9422C12.7261 21.9352 12.7171 21.9282 12.7081 21.9212C12.9882 22.3093 13.1915 22.5648 13.1972 22.572C13.2696 22.6619 13.2741 22.7891 13.2083 22.8841C13.1772 22.929 13.134 22.9622 13.0852 22.9801C13.3924 23.2452 13.5954 23.4045 13.6008 23.4086C13.7042 23.4898 13.7318 23.6348 13.6651 23.7477C13.6536 23.7677 13.6396 23.785 13.6243 23.8003C13.708 23.833 13.7854 23.858 13.8538 23.8728C13.9329 23.8897 13.9996 23.9423 14.0346 24.0153C14.0693 24.0884 14.0686 24.1731 14.0323 24.2456C14.0093 24.2911 13.9493 24.3805 13.8083 24.4616C13.9534 24.5055 14.0918 24.5413 14.2029 24.5597C14.304 24.576 14.3862 24.6501 14.4133 24.7487C14.4401 24.8477 14.4069 24.953 14.3283 25.0188C14.3279 25.0191 14.3274 25.0195 14.3268 25.02C14.3134 25.0306 14.235 25.0931 14.1048 25.1583C14.4664 25.3166 14.8861 25.4642 15.1893 25.4703C15.3136 25.4729 15.4188 25.5623 15.4413 25.6843C15.4638 25.8063 15.3974 25.9274 15.2822 25.9744C15.2682 25.98 15.2115 26.002 15.1129 26.0259C15.8596 26.3998 17.1149 26.8891 18.4179 26.7828C18.5633 26.7695 18.6881 26.8784 18.6996 27.0223C18.7111 27.1663 18.6036 27.2925 18.4598 27.3037C18.3215 27.315 18.1838 27.3201 18.0477 27.3201C15.9735 27.3201 14.1975 26.1148 14.1181 26.0602C14.0228 25.9942 13.9819 25.8737 14.0177 25.7639C14.0251 25.7414 14.035 25.721 14.0473 25.7021C13.59 25.5142 13.2203 25.3023 13.1929 25.2864C13.0877 25.2262 13.0382 25.1005 13.0734 24.9846C13.0969 24.907 13.1536 24.8473 13.2248 24.8181C12.9227 24.7106 12.6775 24.6096 12.6526 24.5994L12.6518 24.5991C12.5331 24.5501 12.4677 24.4224 12.4971 24.2973C12.527 24.1727 12.6478 24.0848 12.7706 24.0966C12.8712 24.1042 12.9611 24.1098 13.0377 24.1052C12.2397 23.6982 11.3201 23.0145 11.2397 22.9547L11.2362 22.9521C11.1303 22.8724 11.1004 22.7269 11.1665 22.612C11.2327 22.4971 11.3747 22.4501 11.4954 22.5022L12.025 22.7279C11.6379 22.3602 11.2104 21.9245 10.8183 21.4577C10.7856 21.4194 10.7659 21.3948 10.7611 21.3887C10.6712 21.2769 10.6886 21.1135 10.7999 21.0226C10.9115 20.9322 11.0744 20.948 11.1666 21.0588L11.1972 21.0956C11.2925 21.208 11.6208 21.5803 12.0675 21.9245C11.5315 21.1554 10.8472 20.0635 10.5627 19.1458C10.5598 19.1366 10.5595 19.1274 10.5593 19.1182C10.5591 19.1127 10.5589 19.1072 10.5582 19.1016C10.5576 19.0971 10.5568 19.0925 10.5561 19.088C10.5541 19.0755 10.5521 19.0632 10.5529 19.0508C10.5538 19.0381 10.5572 19.0265 10.5607 19.0146C10.5618 19.0107 10.563 19.0067 10.564 19.0027C10.5651 18.9986 10.5661 18.9945 10.5671 18.9904C10.5701 18.9781 10.573 18.9659 10.5786 18.9544C10.5838 18.9437 10.5911 18.9346 10.5984 18.9253C10.601 18.9219 10.6037 18.9185 10.6063 18.915C10.6085 18.912 10.6107 18.909 10.6128 18.906C10.6206 18.895 10.6283 18.8842 10.6385 18.875C10.6477 18.8667 10.6586 18.8606 10.6696 18.8545C10.6737 18.8522 10.6779 18.8499 10.6819 18.8475C10.6868 18.8447 10.6912 18.8414 10.6956 18.8381C10.7029 18.8328 10.7101 18.8275 10.719 18.8241C10.7204 18.8235 10.7219 18.8234 10.7234 18.8233C10.7247 18.8232 10.7261 18.8231 10.7274 18.8227C10.7288 18.8222 10.7299 18.8214 10.7311 18.8206C10.7323 18.8198 10.7336 18.8189 10.735 18.8184C10.7445 18.8155 10.754 18.8152 10.7634 18.8148C10.769 18.8147 10.7745 18.8145 10.7801 18.8137C10.7847 18.8132 10.7892 18.8124 10.7937 18.8117C10.8054 18.8098 10.8169 18.8079 10.8286 18.8087C10.8468 18.8097 10.8635 18.8149 10.8806 18.8201C10.8827 18.8208 10.8849 18.8214 10.8871 18.8221C10.8913 18.8234 10.8956 18.8245 10.8999 18.8255C10.9081 18.8276 10.9163 18.8296 10.9241 18.8334C10.9405 18.8412 10.9544 18.8524 10.9685 18.8638C10.9701 18.8651 10.9718 18.8665 10.9735 18.8678C10.977 18.8706 10.9805 18.8732 10.9841 18.8758C10.9913 18.8811 10.9985 18.8863 11.0047 18.8931C11.0153 18.9047 11.0229 18.9186 11.0306 18.9327C11.0324 18.9359 11.0342 18.9392 11.036 18.9424C11.0385 18.9469 11.0416 18.9509 11.0446 18.955C11.0492 18.9612 11.0537 18.9673 11.0566 18.9748C11.2206 19.4034 11.683 20.127 12.2366 20.7552C11.8881 20.0018 11.5025 19.0138 11.3408 18.0608L11.3398 18.0571V18.0562C11.3393 18.0531 11.3385 18.05 11.3378 18.047C11.337 18.0439 11.3363 18.0408 11.3358 18.0377C11.3343 18.0288 11.3352 18.0202 11.3361 18.0116C11.3366 18.0064 11.3372 18.0011 11.3372 17.9957C11.3371 17.9917 11.337 17.9876 11.3369 17.9836C11.3366 17.9701 11.3363 17.9568 11.339 17.9437C11.3416 17.9308 11.3466 17.9191 11.3517 17.9074C11.3531 17.9041 11.3545 17.9008 11.3559 17.8975C11.3574 17.8939 11.3588 17.8902 11.3602 17.8866C11.365 17.8746 11.3696 17.8627 11.3768 17.8518C11.3836 17.8414 11.3923 17.8328 11.4011 17.8241C11.404 17.8212 11.407 17.8183 11.4099 17.8153C11.4125 17.8127 11.415 17.81 11.4175 17.8073C11.4264 17.7978 11.4352 17.7885 11.4462 17.7809C11.4569 17.7735 11.469 17.7687 11.4812 17.7637C11.4853 17.7621 11.4895 17.7604 11.4936 17.7587C11.4985 17.7566 11.5031 17.754 11.5077 17.7514C11.5151 17.7473 11.5225 17.7431 11.5311 17.741C11.5329 17.7406 11.5346 17.7407 11.5364 17.7407C11.5379 17.7408 11.5395 17.7409 11.5411 17.7406C11.5427 17.7403 11.5442 17.7395 11.5456 17.7388C11.5473 17.738 11.5489 17.7372 11.5508 17.737C11.561 17.7352 11.5707 17.7362 11.5804 17.7372C11.586 17.7377 11.5916 17.7383 11.5972 17.7384C11.602 17.7384 11.6067 17.7383 11.6114 17.7382C11.622 17.7379 11.6325 17.7376 11.6428 17.7396C11.6637 17.7435 11.682 17.752 11.7009 17.7607L11.7025 17.7615C11.7063 17.7633 11.7101 17.7648 11.714 17.7664C11.721 17.7692 11.728 17.7721 11.7345 17.7762C11.7512 17.7871 11.7646 17.8012 11.7784 17.8158C11.7789 17.8163 11.7794 17.8168 11.7799 17.8173C11.7827 17.8203 11.7855 17.823 11.7884 17.8258C11.795 17.8321 11.8015 17.8384 11.8068 17.8462C11.8159 17.8593 11.8218 17.8741 11.8277 17.8892C11.8289 17.8922 11.8301 17.8951 11.8313 17.8981C11.8332 17.9029 11.8357 17.9073 11.8382 17.9117C11.8419 17.9183 11.8456 17.9248 11.8475 17.9325C12.0053 18.5729 12.4534 19.8028 13.0965 20.818C12.6158 19.6452 12.4413 18.7539 12.4307 18.6976C12.4039 18.5556 12.4971 18.4192 12.639 18.3922C12.7818 18.3672 12.9176 18.4586 12.9444 18.6005C12.9483 18.621 13.3461 20.6628 14.6144 22.608C16.2931 25.1825 18.6288 26.3842 21.5582 26.1723C21.5967 26.1699 21.6333 26.1771 21.6674 26.1898L21.6744 26.187C21.764 26.1506 21.8541 26.114 21.9596 26.0773C22.9141 25.7458 23.9657 25.6273 24.1914 25.6048C24.6229 25.4154 29.0545 23.3552 29.3893 18.7497C29.3997 18.6082 29.5282 18.5112 29.6612 18.5071C29.8027 18.5137 29.9135 18.6307 29.9115 18.7722C29.9108 18.8258 29.899 19.5658 29.8369 20.3645C30.1755 19.648 30.5425 18.8018 30.722 18.1588C30.7608 18.0205 30.9036 17.9398 31.0425 17.977C31.1811 18.0148 31.2634 18.1573 31.2266 18.2962C31.2021 18.3892 30.8504 19.7114 30.4659 20.9494C30.8788 20.3146 31.2876 19.6399 31.4853 19.1783C31.4943 19.1573 31.4993 19.1451 31.5004 19.1425V19.142ZM19.6581 27.8245L19.5867 27.8152C19.3958 27.9044 19.2392 27.9906 19.1175 28.0701C19.2058 28.0741 19.3184 28.0828 19.4426 28.0928C19.4993 27.9981 19.5705 27.9062 19.6581 27.8245Z" fill="#FFE15A"/>
</g>
</g>
<defs>
<clipPath id="clip0_1695_7194">
<rect width="40" height="40" rx="20" fill="white"/>
</clipPath>
</defs>
</svg>
