<svg width="40" height="40" viewBox="0 0 40 40" fill="none" xmlns="http://www.w3.org/2000/svg">
<g clip-path="url(#clip0_1695_7786)">
<g clip-path="url(#clip1_1695_7786)">
<rect width="40" height="40" rx="20" fill="#E3E5E8"/>
<path fill-rule="evenodd" clip-rule="evenodd" d="M0 0H40V40H0V0Z" fill="#E30A17"/>
<path fill-rule="evenodd" clip-rule="evenodd" d="M27.25 20.625C27.25 26.1406 22.6953 30.6172 17.0859 30.6172C11.4766 30.6172 6.92188 26.1406 6.92188 20.6172C6.92188 15.0937 11.4688 10.6328 17.0781 10.6328C22.6875 10.6328 27.2578 15.1016 27.2578 20.625H27.25Z" fill="white"/>
<path fill-rule="evenodd" clip-rule="evenodd" d="M27.7578 20.625C27.7578 25.0391 24.1172 28.6172 19.625 28.6172C15.1328 28.6172 11.5 25.0391 11.5 20.625C11.5 16.2109 15.1328 12.6328 19.625 12.6328C24.1172 12.6328 27.75 16.2109 27.75 20.625H27.7578Z" fill="#E30A17"/>
<path fill-rule="evenodd" clip-rule="evenodd" d="M29.2266 15.9531L29.1484 19.6484L25.6953 20.5859L29.0937 21.7969L29.0156 25.1797L31.2266 22.5391L34.5781 23.6953L32.6406 20.8594L35 18.0391L31.375 19.0391L29.2266 15.9531Z" fill="white"/>
</g>
</g>
<defs>
<clipPath id="clip0_1695_7786">
<rect width="40" height="40" rx="20" fill="white"/>
</clipPath>
<clipPath id="clip1_1695_7786">
<rect width="40" height="40" rx="20" fill="white"/>
</clipPath>
</defs>
</svg>
