<svg width="40" height="40" viewBox="0 0 40 40" fill="none" xmlns="http://www.w3.org/2000/svg">
<g clip-path="url(#clip0_1695_8210)">
<rect width="40" height="40" fill="#E3E5E8"/>
<circle cx="20" cy="20" r="20" fill="#D8D8D8"/>
<mask id="mask0_1695_8210" style="mask-type:alpha" maskUnits="userSpaceOnUse" x="0" y="0" width="40" height="40">
<circle cx="20" cy="20" r="20" fill="white"/>
</mask>
<g mask="url(#mask0_1695_8210)">
<circle cx="20" cy="20" r="26.25" fill="#F5F5F5"/>
<path d="M19.1304 20H45.3804C45.3804 18.1949 45.0777 16.4461 44.5138 14.7826H19.1304V20Z" fill="#D80027"/>
<path d="M19.1304 9.5652H46.6304C44.753 7.56739 42.3527 5.80153 39.554 4.34778H19.1304V9.5652Z" fill="#D80027"/>
<rect y="35.5469" width="38.75" height="5" fill="#D80027"/>
<path d="M-2.09171 30.4347H42.0917C43.3642 28.8309 44.351 27.0778 45 25.2173H-5C-4.35098 27.0778 -3.36415 28.8309 -2.09171 30.4347Z" fill="#D80027"/>
<rect x="-1.25" width="21.25" height="20" fill="#0052B4"/>
<path fill-rule="evenodd" clip-rule="evenodd" d="M16.5655 4.3549L17.2131 6.34779L15.5179 5.11615L13.8226 6.34779L14.4702 4.3549L12.7749 3.12326H14.8704L15.5179 1.13037L16.1654 3.12326H18.2608L16.5655 4.3549Z" fill="#F5F5F5"/>
<path fill-rule="evenodd" clip-rule="evenodd" d="M9.39072 4.3549L10.0383 6.34779L8.34307 5.11615L6.64783 6.34779L7.29541 4.3549L5.6001 3.12326H7.69557L8.34307 1.13037L8.99057 3.12326H11.086L9.39072 4.3549Z" fill="#F5F5F5"/>
<path fill-rule="evenodd" clip-rule="evenodd" d="M2.21543 4.3549L2.86301 6.34779L1.16777 5.11615L-0.527461 6.34779L0.120117 4.3549L-1.5752 3.12326H0.520273L1.16777 1.13037L1.81527 3.12326H3.91074L2.21543 4.3549Z" fill="#F5F5F5"/>
<path fill-rule="evenodd" clip-rule="evenodd" d="M16.5655 10.1811L17.2131 12.174L15.5179 10.9423L13.8226 12.174L14.4702 10.1811L12.7749 8.94943H14.8704L15.5179 6.95654L16.1654 8.94943H18.2608L16.5655 10.1811Z" fill="#F5F5F5"/>
<path fill-rule="evenodd" clip-rule="evenodd" d="M17.2131 18L15.5179 16.7684L13.8226 18L14.4702 16.0071L12.7749 14.7755H14.8704L15.5179 12.7826L16.1654 14.7755H18.2608L16.5655 16.0071L17.2131 18Z" fill="#F5F5F5"/>
<path fill-rule="evenodd" clip-rule="evenodd" d="M9.3917 10.1811L10.0393 12.174L8.34404 10.9423L6.64881 12.174L7.29639 10.1811L5.60107 8.94943H7.69654L8.34404 6.95654L8.99154 8.94943H11.087L9.3917 10.1811Z" fill="#F5F5F5"/>
<path fill-rule="evenodd" clip-rule="evenodd" d="M2.21543 10.1811L2.86301 12.174L1.16777 10.9423L-0.527461 12.174L0.120117 10.1811L-1.5752 8.94943H0.520273L1.16777 6.95654L1.81527 8.94943H3.91074L2.21543 10.1811Z" fill="#F5F5F5"/>
<path fill-rule="evenodd" clip-rule="evenodd" d="M10.0393 18L8.34404 16.7684L6.64881 18L7.29639 16.0071L5.60107 14.7755H7.69654L8.34404 12.7826L8.99154 14.7755H11.087L9.3917 16.0071L10.0393 18Z" fill="#F5F5F5"/>
<path fill-rule="evenodd" clip-rule="evenodd" d="M2.86301 18L1.16777 16.7684L-0.527461 18L0.120117 16.0071L-1.5752 14.7755H0.520273L1.16777 12.7826L1.81527 14.7755H3.91074L2.21543 16.0071L2.86301 18Z" fill="#F5F5F5"/>
</g>
</g>
<defs>
<clipPath id="clip0_1695_8210">
<rect width="40" height="40" rx="20" fill="white"/>
</clipPath>
</defs>
</svg>
