<svg width="40" height="40" viewBox="0 0 40 40" fill="none" xmlns="http://www.w3.org/2000/svg">
<g clip-path="url(#clip0_1695_7519)">
<g clip-path="url(#clip1_1695_7519)">
<rect width="40" height="40" rx="20" fill="#E3E5E8"/>
<path d="M0 26.6641H40V40H0V26.6641Z" fill="#1EB53A"/>
<path d="M0 0H40V13.3359H0V0Z" fill="#0099B5"/>
<path d="M0 12.7969H40V27.2031H0V12.7969Z" fill="#CE1126"/>
<path d="M0 13.5938H40V26.4062H0V13.5938Z" fill="white"/>
<path d="M11.2031 11.1953C13.8524 11.1953 16 9.04768 16 6.39844C16 3.7492 13.8524 1.60156 11.2031 1.60156C8.55388 1.60156 6.40625 3.7492 6.40625 6.39844C6.40625 9.04768 8.55388 11.1953 11.2031 11.1953Z" fill="white"/>
<path d="M12.7969 11.1953C15.4461 11.1953 17.5938 9.04768 17.5938 6.39844C17.5938 3.7492 15.4461 1.60156 12.7969 1.60156C10.1476 1.60156 8 3.7492 8 6.39844C8 9.04768 10.1476 11.1953 12.7969 11.1953Z" fill="#0099B5"/>
<path d="M21.7581 9.27441L21.4541 10.1864L21.9181 10.3464" fill="white"/>
<path d="M21.758 9.27441L22.062 10.1864L21.598 10.3464" fill="white"/>
<path d="M22.6711 9.9378L21.7098 9.93051L21.701 10.4212" fill="white"/>
<path d="M22.6712 9.93781L21.8978 10.5088L21.6022 10.1169" fill="white"/>
<path d="M20.8449 9.93781L21.6183 10.5088L21.9139 10.1169" fill="white"/>
<path d="M20.845 9.9378L21.8063 9.93051L21.8151 10.4212" fill="white"/>
<path d="M22.3224 11.0111L22.0323 10.0946L21.5629 10.2379" fill="white"/>
<path d="M22.3226 11.0111L21.5406 10.452L21.8219 10.0498" fill="white"/>
<path d="M21.194 11.0111L21.976 10.452L21.6947 10.0498" fill="white"/>
<path d="M21.1942 11.0111L21.4843 10.0946L21.9537 10.2379" fill="white"/>
<path d="M21.7581 9.27441L21.4541 10.1864L21.9181 10.3464" fill="white"/>
<path d="M21.758 9.27441L22.062 10.1864L21.598 10.3464" fill="white"/>
<path d="M22.6711 9.9378L21.7098 9.93051L21.701 10.4212" fill="white"/>
<path d="M22.6712 9.93781L21.8978 10.5088L21.6022 10.1169" fill="white"/>
<path d="M20.8449 9.93781L21.6183 10.5088L21.9139 10.1169" fill="white"/>
<path d="M20.845 9.9378L21.8063 9.93051L21.8151 10.4212" fill="white"/>
<path d="M22.3224 11.0111L22.0323 10.0946L21.5629 10.2379" fill="white"/>
<path d="M22.3226 11.0111L21.5406 10.452L21.8219 10.0498" fill="white"/>
<path d="M21.194 11.0111L21.976 10.452L21.6947 10.0498" fill="white"/>
<path d="M21.1942 11.0111L21.4843 10.0946L21.9537 10.2379" fill="white"/>
<path d="M21.7581 9.27441L21.4541 10.1864L21.9181 10.3464" fill="white"/>
<path d="M21.758 9.27441L22.062 10.1864L21.598 10.3464" fill="white"/>
<path d="M22.6711 9.9378L21.7098 9.93051L21.701 10.4212" fill="white"/>
<path d="M22.6712 9.93781L21.8978 10.5088L21.6022 10.1169" fill="white"/>
<path d="M20.8449 9.93781L21.6183 10.5088L21.9139 10.1169" fill="white"/>
<path d="M20.845 9.9378L21.8063 9.93051L21.8151 10.4212" fill="white"/>
<path d="M22.3224 11.0111L22.0323 10.0946L21.5629 10.2379" fill="white"/>
<path d="M22.3226 11.0111L21.5406 10.452L21.8219 10.0498" fill="white"/>
<path d="M21.194 11.0111L21.976 10.452L21.6947 10.0498" fill="white"/>
<path d="M21.1942 11.0111L21.4843 10.0946L21.9537 10.2379" fill="white"/>
<path d="M21.7581 9.27441L21.4541 10.1864L21.9181 10.3464" fill="white"/>
<path d="M21.758 9.27441L22.062 10.1864L21.598 10.3464" fill="white"/>
<path d="M22.6711 9.9378L21.7098 9.93051L21.701 10.4212" fill="white"/>
<path d="M22.6712 9.93781L21.8978 10.5088L21.6022 10.1169" fill="white"/>
<path d="M20.8449 9.93781L21.6183 10.5088L21.9139 10.1169" fill="white"/>
<path d="M20.845 9.9378L21.8063 9.93051L21.8151 10.4212" fill="white"/>
<path d="M22.3224 11.0111L22.0323 10.0946L21.5629 10.2379" fill="white"/>
<path d="M22.3226 11.0111L21.5406 10.452L21.8219 10.0498" fill="white"/>
<path d="M21.194 11.0111L21.976 10.452L21.6947 10.0498" fill="white"/>
<path d="M21.1942 11.0111L21.4843 10.0946L21.9537 10.2379" fill="white"/>
<path d="M21.7581 9.27441L21.4541 10.1864L21.9181 10.3464" fill="white"/>
<path d="M21.758 9.27441L22.062 10.1864L21.598 10.3464" fill="white"/>
<path d="M22.6711 9.9378L21.7098 9.93051L21.701 10.4212" fill="white"/>
<path d="M22.6712 9.93781L21.8978 10.5088L21.6022 10.1169" fill="white"/>
<path d="M20.8449 9.93781L21.6183 10.5088L21.9139 10.1169" fill="white"/>
<path d="M20.845 9.9378L21.8063 9.93051L21.8151 10.4212" fill="white"/>
<path d="M22.3224 11.0111L22.0323 10.0946L21.5629 10.2379" fill="white"/>
<path d="M22.3226 11.0111L21.5406 10.452L21.8219 10.0498" fill="white"/>
<path d="M21.194 11.0111L21.976 10.452L21.6947 10.0498" fill="white"/>
<path d="M21.1942 11.0111L21.4843 10.0946L21.9537 10.2379" fill="white"/>
<path d="M21.7581 9.27441L21.4541 10.1864L21.9181 10.3464" fill="white"/>
<path d="M21.758 9.27441L22.062 10.1864L21.598 10.3464" fill="white"/>
<path d="M22.6711 9.9378L21.7098 9.93051L21.701 10.4212" fill="white"/>
<path d="M22.6712 9.93781L21.8978 10.5088L21.6022 10.1169" fill="white"/>
<path d="M20.8449 9.93781L21.6183 10.5088L21.9139 10.1169" fill="white"/>
<path d="M20.845 9.9378L21.8063 9.93051L21.8151 10.4212" fill="white"/>
<path d="M22.3224 11.0111L22.0323 10.0946L21.5629 10.2379" fill="white"/>
<path d="M22.3226 11.0111L21.5406 10.452L21.8219 10.0498" fill="white"/>
<path d="M21.194 11.0111L21.976 10.452L21.6947 10.0498" fill="white"/>
<path d="M21.1942 11.0111L21.4843 10.0946L21.9537 10.2379" fill="white"/>
<path d="M21.7581 9.27441L21.4541 10.1864L21.9181 10.3464" fill="white"/>
<path d="M21.758 9.27441L22.062 10.1864L21.598 10.3464" fill="white"/>
<path d="M22.6711 9.9378L21.7098 9.93051L21.701 10.4212" fill="white"/>
<path d="M22.6712 9.93781L21.8978 10.5088L21.6022 10.1169" fill="white"/>
<path d="M20.8449 9.93781L21.6183 10.5088L21.9139 10.1169" fill="white"/>
<path d="M20.845 9.9378L21.8063 9.93051L21.8151 10.4212" fill="white"/>
<path d="M22.3224 11.0111L22.0323 10.0946L21.5629 10.2379" fill="white"/>
<path d="M22.3226 11.0111L21.5406 10.452L21.8219 10.0498" fill="white"/>
<path d="M21.194 11.0111L21.976 10.452L21.6947 10.0498" fill="white"/>
<path d="M21.1942 11.0111L21.4843 10.0946L21.9537 10.2379" fill="white"/>
<path d="M21.7581 9.27441L21.4541 10.1864L21.9181 10.3464" fill="white"/>
<path d="M21.758 9.27441L22.062 10.1864L21.598 10.3464" fill="white"/>
<path d="M22.6711 9.9378L21.7098 9.93051L21.701 10.4212" fill="white"/>
<path d="M22.6712 9.93781L21.8978 10.5088L21.6022 10.1169" fill="white"/>
<path d="M20.8449 9.93781L21.6183 10.5088L21.9139 10.1169" fill="white"/>
<path d="M20.845 9.9378L21.8063 9.93051L21.8151 10.4212" fill="white"/>
<path d="M22.3224 11.0111L22.0323 10.0946L21.5629 10.2379" fill="white"/>
<path d="M22.3226 11.0111L21.5406 10.452L21.8219 10.0498" fill="white"/>
<path d="M21.194 11.0111L21.976 10.452L21.6947 10.0498" fill="white"/>
<path d="M21.1942 11.0111L21.4843 10.0946L21.9537 10.2379" fill="white"/>
<path d="M21.7581 9.27441L21.4541 10.1864L21.9181 10.3464" fill="white"/>
<path d="M21.758 9.27441L22.062 10.1864L21.598 10.3464" fill="white"/>
<path d="M22.6711 9.9378L21.7098 9.93051L21.701 10.4212" fill="white"/>
<path d="M22.6712 9.93781L21.8978 10.5088L21.6022 10.1169" fill="white"/>
<path d="M20.8449 9.93781L21.6183 10.5088L21.9139 10.1169" fill="white"/>
<path d="M20.845 9.9378L21.8063 9.93051L21.8151 10.4212" fill="white"/>
<path d="M22.3224 11.0111L22.0323 10.0946L21.5629 10.2379" fill="white"/>
<path d="M22.3226 11.0111L21.5406 10.452L21.8219 10.0498" fill="white"/>
<path d="M21.194 11.0111L21.976 10.452L21.6947 10.0498" fill="white"/>
<path d="M21.1942 11.0111L21.4843 10.0946L21.9537 10.2379" fill="white"/>
<path d="M21.7581 9.27441L21.4541 10.1864L21.9181 10.3464" fill="white"/>
<path d="M21.758 9.27441L22.062 10.1864L21.598 10.3464" fill="white"/>
<path d="M22.6711 9.9378L21.7098 9.93051L21.701 10.4212" fill="white"/>
<path d="M22.6712 9.93781L21.8978 10.5088L21.6022 10.1169" fill="white"/>
<path d="M20.8449 9.93781L21.6183 10.5088L21.9139 10.1169" fill="white"/>
<path d="M20.845 9.9378L21.8063 9.93051L21.8151 10.4212" fill="white"/>
<path d="M22.3224 11.0111L22.0323 10.0946L21.5629 10.2379" fill="white"/>
<path d="M22.3226 11.0111L21.5406 10.452L21.8219 10.0498" fill="white"/>
<path d="M21.194 11.0111L21.976 10.452L21.6947 10.0498" fill="white"/>
<path d="M21.1942 11.0111L21.4843 10.0946L21.9537 10.2379" fill="white"/>
<path d="M21.7581 9.27441L21.4541 10.1864L21.9181 10.3464" fill="white"/>
<path d="M21.758 9.27441L22.062 10.1864L21.598 10.3464" fill="white"/>
<path d="M22.6711 9.9378L21.7098 9.93051L21.701 10.4212" fill="white"/>
<path d="M22.6712 9.93781L21.8978 10.5088L21.6022 10.1169" fill="white"/>
<path d="M20.8449 9.93781L21.6183 10.5088L21.9139 10.1169" fill="white"/>
<path d="M20.845 9.9378L21.8063 9.93051L21.8151 10.4212" fill="white"/>
<path d="M22.3224 11.0111L22.0323 10.0946L21.5629 10.2379" fill="white"/>
<path d="M22.3226 11.0111L21.5406 10.452L21.8219 10.0498" fill="white"/>
<path d="M21.194 11.0111L21.976 10.452L21.6947 10.0498" fill="white"/>
<path d="M21.1942 11.0111L21.4843 10.0946L21.9537 10.2379" fill="white"/>
<path d="M21.7581 9.27441L21.4541 10.1864L21.9181 10.3464" fill="white"/>
<path d="M21.758 9.27441L22.062 10.1864L21.598 10.3464" fill="white"/>
<path d="M22.6711 9.9378L21.7098 9.93051L21.701 10.4212" fill="white"/>
<path d="M22.6712 9.93781L21.8978 10.5088L21.6022 10.1169" fill="white"/>
<path d="M20.8449 9.93781L21.6183 10.5088L21.9139 10.1169" fill="white"/>
<path d="M20.845 9.9378L21.8063 9.93051L21.8151 10.4212" fill="white"/>
<path d="M22.3224 11.0111L22.0323 10.0946L21.5629 10.2379" fill="white"/>
<path d="M22.3226 11.0111L21.5406 10.452L21.8219 10.0498" fill="white"/>
<path d="M21.194 11.0111L21.976 10.452L21.6947 10.0498" fill="white"/>
<path d="M21.1942 11.0111L21.4843 10.0946L21.9537 10.2379" fill="white"/>
</g>
</g>
<defs>
<clipPath id="clip0_1695_7519">
<rect width="40" height="40" rx="20" fill="white"/>
</clipPath>
<clipPath id="clip1_1695_7519">
<rect width="40" height="40" rx="20" fill="white"/>
</clipPath>
</defs>
</svg>
